<?xml version="1.0" encoding="utf-8"?>
<!-- Generator: Adobe Illustrator 22.0.1, SVG Export Plug-In . SVG Version: 6.00 Build 0)  -->
<svg version="1.1" id="Layer_1" xmlns="http://www.w3.org/2000/svg" xmlns:xlink="http://www.w3.org/1999/xlink" x="0px" y="0px"
	 viewBox="0 0 612 49.5" style="enable-background:new 0 0 612 49.5;" xml:space="preserve">
<style type="text/css">
	.st0{fill:none;}
	.st1{font-family:'BlackOpsOne-Regular';}
	.st2{font-size:40px;}
	.st3{fill:url(#SVGID_1_);}
	.st4{fill:url(#SVGID_2_);}
	.st5{fill:url(#SVGID_3_);}
	.st6{fill:url(#SVGID_4_);}
	.st7{fill:url(#SVGID_5_);}
	.st8{fill:url(#SVGID_6_);}
	.st9{fill:url(#SVGID_7_);}
	.st10{fill:url(#SVGID_8_);}
	.st11{fill:url(#SVGID_9_);}
	.st12{fill:url(#SVGID_10_);}
	.st13{fill:url(#SVGID_11_);}
	.st14{fill:url(#SVGID_12_);}
	.st15{fill:url(#SVGID_13_);}
	.st16{fill:url(#SVGID_14_);}
	.st17{fill:url(#SVGID_15_);}
	.st18{fill:url(#SVGID_16_);}
	.st19{fill:url(#SVGID_17_);}
	.st20{fill:url(#SVGID_18_);}
	.st21{fill:url(#SVGID_19_);}
	.st22{fill:url(#SVGID_20_);}
	.st23{fill:url(#SVGID_21_);}
	.st24{fill:url(#SVGID_22_);}
	.st25{fill:url(#SVGID_23_);}
	.st26{fill:url(#SVGID_24_);}
	.st27{fill:url(#SVGID_25_);}
	.st28{fill:url(#SVGID_26_);}
	.st29{fill:url(#SVGID_27_);}
	.st30{fill:url(#SVGID_28_);}
	.st31{fill:url(#SVGID_29_);}
	.st32{fill:url(#SVGID_30_);}
	.st33{fill:url(#SVGID_31_);}
	.st34{fill:url(#SVGID_32_);}
	.st35{fill:url(#SVGID_33_);}
	.st36{fill:url(#SVGID_34_);}
	.st37{fill:url(#SVGID_35_);}
	.st38{fill:url(#SVGID_36_);}
	.st39{fill:url(#SVGID_37_);}
	.st40{fill:url(#SVGID_38_);}
	.st41{fill:url(#SVGID_39_);}
	.st42{fill:url(#SVGID_40_);}
	.st43{fill:url(#SVGID_41_);}
	.st44{fill:url(#SVGID_42_);}
	.st45{fill:url(#SVGID_43_);}
	.st46{fill:url(#SVGID_44_);}
	.st47{fill:url(#SVGID_45_);}
	.st48{fill:url(#SVGID_46_);}
	.st49{fill:url(#SVGID_47_);}
	.st50{fill:url(#SVGID_48_);}
	.st51{fill:url(#SVGID_49_);}
	.st52{fill:url(#SVGID_50_);}
	.st53{fill:url(#SVGID_51_);}
	.st54{fill:url(#SVGID_52_);}
	.st55{fill:url(#SVGID_53_);}
	.st56{fill:url(#SVGID_54_);}
	.st57{fill:url(#SVGID_55_);}
	.st58{fill:url(#SVGID_56_);}
	.st59{fill:url(#SVGID_57_);}
	.st60{fill:url(#SVGID_58_);}
	.st61{fill:url(#SVGID_59_);}
	.st62{fill:url(#SVGID_60_);}
	.st63{fill:url(#SVGID_61_);}
	.st64{fill:url(#SVGID_62_);}
	.st65{fill:url(#SVGID_63_);}
</style>
<g>
	<rect x="6" y="5.3" class="st0" width="609" height="39"/>
	<text transform="matrix(1 0 0 1 6 33.959)" class="st1 st2">ABOUT STARSHIP TROOPERS</text>
	<g>
		<linearGradient id="SVGID_1_" gradientUnits="userSpaceOnUse" x1="305.9194" y1="-1.1451" x2="305.9194" y2="74.4546">
			<stop  offset="0" style="stop-color:#666666"/>
			<stop  offset="1" style="stop-color:#1A1A1A"/>
		</linearGradient>
		<path class="st3" d="M25,36l-1.1-2.8h-7L16,36H3.3L14,7.4L13.5,6h1l1-2.6L16.4,6h9.8L38.1,36H25z M20.4,24l-0.3-0.7L19.9,24H20.4z
			"/>
		<linearGradient id="SVGID_2_" gradientUnits="userSpaceOnUse" x1="305.9194" y1="-1.1451" x2="305.9194" y2="74.4546">
			<stop  offset="0" style="stop-color:#666666"/>
			<stop  offset="1" style="stop-color:#1A1A1A"/>
		</linearGradient>
		<path class="st4" d="M35.6,36V6h22.8l6.4,6.3v6.9L63,21.1l1.8,1.8v6.8L58.4,36H35.6z M52,26.8v-1.5h-3.8v1.5H52z M52,16.7v-1.5
			h-3.8v1.5H52z"/>
		<linearGradient id="SVGID_3_" gradientUnits="userSpaceOnUse" x1="305.9194" y1="-1.1451" x2="305.9194" y2="74.4546">
			<stop  offset="0" style="stop-color:#666666"/>
			<stop  offset="1" style="stop-color:#1A1A1A"/>
		</linearGradient>
		<path class="st5" d="M70.6,36l-6.4-6.3V12.4L70.6,6H87l6.4,6.3v17.2L87,36H70.6z M80.7,26.7V15.3h-3.9v11.4h0.6H80.7z"/>
		<linearGradient id="SVGID_4_" gradientUnits="userSpaceOnUse" x1="305.9194" y1="-1.1451" x2="305.9194" y2="74.4546">
			<stop  offset="0" style="stop-color:#666666"/>
			<stop  offset="1" style="stop-color:#1A1A1A"/>
		</linearGradient>
		<polygon class="st6" points="99.5,36 93.1,29.6 93.1,6 105.8,6 105.8,26.8 109.5,26.8 109.5,6 122.2,6 122.2,29.6 115.8,36 		"/>
		<linearGradient id="SVGID_5_" gradientUnits="userSpaceOnUse" x1="305.9194" y1="-1.1451" x2="305.9194" y2="74.4546">
			<stop  offset="0" style="stop-color:#666666"/>
			<stop  offset="1" style="stop-color:#1A1A1A"/>
		</linearGradient>
		<polygon class="st7" points="128,36 128,15.7 121.3,15.7 121.3,6 147.8,6 147.8,15.7 141,15.7 141,36 		"/>
		<linearGradient id="SVGID_6_" gradientUnits="userSpaceOnUse" x1="305.9194" y1="-1.1451" x2="305.9194" y2="74.4546">
			<stop  offset="0" style="stop-color:#666666"/>
			<stop  offset="1" style="stop-color:#1A1A1A"/>
		</linearGradient>
		<path class="st8" d="M162.5,36l-5.4-6.4v-5.3h4.3l-4.3-4.3v-7.5l6.4-6.3h16.3l5.7,5.7v5.6h-3.5l4.2,4.3v8l-6.3,6.3H162.5z
			 M173.5,27.3v-1h-3.8v1H173.5z M173.5,15.2v-0.5h-4.3v0.5H173.5z"/>
		<linearGradient id="SVGID_7_" gradientUnits="userSpaceOnUse" x1="305.9194" y1="-1.1451" x2="305.9194" y2="74.4546">
			<stop  offset="0" style="stop-color:#666666"/>
			<stop  offset="1" style="stop-color:#1A1A1A"/>
		</linearGradient>
		<polygon class="st9" points="191.8,36 191.8,15.7 185,15.7 185,6 211.5,6 211.5,15.7 204.8,15.7 204.8,36 		"/>
		<linearGradient id="SVGID_8_" gradientUnits="userSpaceOnUse" x1="305.9194" y1="-1.1451" x2="305.9194" y2="74.4546">
			<stop  offset="0" style="stop-color:#666666"/>
			<stop  offset="1" style="stop-color:#1A1A1A"/>
		</linearGradient>
		<path class="st10" d="M229.6,36l-1.1-2.8h-7l-0.9,2.8h-12.7l10.7-28.6L218,6h1l1-2.6l0.9,2.6h9.8L242.6,36H229.6z M224.9,24
			l-0.3-0.7l-0.2,0.7H224.9z"/>
		<linearGradient id="SVGID_9_" gradientUnits="userSpaceOnUse" x1="305.9194" y1="-1.1451" x2="305.9194" y2="74.4546">
			<stop  offset="0" style="stop-color:#666666"/>
			<stop  offset="1" style="stop-color:#1A1A1A"/>
		</linearGradient>
		<path class="st11" d="M257.6,36l-3.7-7.8h-1.1V36h-12.6V6h22.7l6.4,6.3v9.4l-3.5,3.5l5.8,10.6H257.6z M256.6,19.2v-3.9h-3.9v3.9
			H256.6z"/>
		<linearGradient id="SVGID_10_" gradientUnits="userSpaceOnUse" x1="305.9194" y1="-1.1451" x2="305.9194" y2="74.4546">
			<stop  offset="0" style="stop-color:#666666"/>
			<stop  offset="1" style="stop-color:#1A1A1A"/>
		</linearGradient>
		<path class="st12" d="M274.2,36l-5.4-6.4v-5.3h4.3l-4.3-4.3v-7.5l6.4-6.3h16.3l5.7,5.7v5.6h-3.5l4.2,4.3v8l-6.3,6.3H274.2z
			 M285.2,27.3v-1h-3.8v1H285.2z M285.2,15.2v-0.5h-4.3v0.5H285.2z"/>
		<linearGradient id="SVGID_11_" gradientUnits="userSpaceOnUse" x1="305.9194" y1="-1.1451" x2="305.9194" y2="74.4546">
			<stop  offset="0" style="stop-color:#666666"/>
			<stop  offset="1" style="stop-color:#1A1A1A"/>
		</linearGradient>
		<polygon class="st13" points="314.4,36 314.4,25.4 310.6,25.4 310.6,36 298,36 298,6 310.6,6 310.6,16.2 314.3,16.2 314.3,6 
			327,6 327,36 		"/>
		<linearGradient id="SVGID_12_" gradientUnits="userSpaceOnUse" x1="305.9194" y1="-1.1451" x2="305.9194" y2="74.4546">
			<stop  offset="0" style="stop-color:#666666"/>
			<stop  offset="1" style="stop-color:#1A1A1A"/>
		</linearGradient>
		<polygon class="st14" points="327.2,36 327.2,26.4 329.8,26.4 329.8,15.5 327.2,15.5 327.2,6 345,6 345,15.5 342.4,15.5 
			342.4,26.4 345,26.4 345,36 		"/>
		<linearGradient id="SVGID_13_" gradientUnits="userSpaceOnUse" x1="305.9194" y1="-1.1451" x2="305.9194" y2="74.4546">
			<stop  offset="0" style="stop-color:#666666"/>
			<stop  offset="1" style="stop-color:#1A1A1A"/>
		</linearGradient>
		<path class="st15" d="M345.2,36V6h22.4l6.3,6.3v10.5l-6.3,6.4h-9.9V36H345.2z M361.3,20.1v-4.9h-3.6v4.9H361.3z"/>
		<linearGradient id="SVGID_14_" gradientUnits="userSpaceOnUse" x1="305.9194" y1="-1.1451" x2="305.9194" y2="74.4546">
			<stop  offset="0" style="stop-color:#666666"/>
			<stop  offset="1" style="stop-color:#1A1A1A"/>
		</linearGradient>
		<polygon class="st16" points="389.5,36 389.5,15.7 382.8,15.7 382.8,6 409.3,6 409.3,15.7 402.5,15.7 402.5,36 		"/>
		<linearGradient id="SVGID_15_" gradientUnits="userSpaceOnUse" x1="305.9194" y1="-1.1451" x2="305.9194" y2="74.4546">
			<stop  offset="0" style="stop-color:#666666"/>
			<stop  offset="1" style="stop-color:#1A1A1A"/>
		</linearGradient>
		<path class="st17" d="M426,36l-3.7-7.8h-1.1V36h-12.6V6h22.7l6.4,6.3v9.4l-3.5,3.5l5.8,10.6H426z M425.1,19.2v-3.9h-3.9v3.9H425.1
			z"/>
		<linearGradient id="SVGID_16_" gradientUnits="userSpaceOnUse" x1="305.9194" y1="-1.1451" x2="305.9194" y2="74.4546">
			<stop  offset="0" style="stop-color:#666666"/>
			<stop  offset="1" style="stop-color:#1A1A1A"/>
		</linearGradient>
		<path class="st18" d="M443.4,36l-6.4-6.3V12.4l6.4-6.3h16.3l6.4,6.3v17.2l-6.4,6.3H443.4z M453.6,26.7V15.3h-3.9v11.4h0.6H453.6z"
			/>
		<linearGradient id="SVGID_17_" gradientUnits="userSpaceOnUse" x1="305.9194" y1="-1.1451" x2="305.9194" y2="74.4546">
			<stop  offset="0" style="stop-color:#666666"/>
			<stop  offset="1" style="stop-color:#1A1A1A"/>
		</linearGradient>
		<path class="st19" d="M472,36l-6.4-6.3V12.4L472,6h16.3l6.4,6.3v17.2l-6.4,6.3H472z M482.1,26.7V15.3h-3.9v11.4h0.6H482.1z"/>
		<linearGradient id="SVGID_18_" gradientUnits="userSpaceOnUse" x1="305.9194" y1="-1.1451" x2="305.9194" y2="74.4546">
			<stop  offset="0" style="stop-color:#666666"/>
			<stop  offset="1" style="stop-color:#1A1A1A"/>
		</linearGradient>
		<path class="st20" d="M494.7,36V6h22.4l6.3,6.3v10.5l-6.3,6.4h-9.9V36H494.7z M510.8,20.1v-4.9h-3.6v4.9H510.8z"/>
		<linearGradient id="SVGID_19_" gradientUnits="userSpaceOnUse" x1="305.9194" y1="-1.1451" x2="305.9194" y2="74.4546">
			<stop  offset="0" style="stop-color:#666666"/>
			<stop  offset="1" style="stop-color:#1A1A1A"/>
		</linearGradient>
		<path class="st21" d="M523.2,36V6h27.5v11.5h-6.6v6.6h6.6V36H523.2z M538.1,26.8v-1.5h-2.2v1.5H538.1z M538.6,16.3v-1.3h-2.7v1.3
			H538.6z"/>
		<linearGradient id="SVGID_20_" gradientUnits="userSpaceOnUse" x1="305.9194" y1="-1.1451" x2="305.9194" y2="74.4546">
			<stop  offset="0" style="stop-color:#666666"/>
			<stop  offset="1" style="stop-color:#1A1A1A"/>
		</linearGradient>
		<path class="st22" d="M568.3,36l-3.7-7.8h-1.1V36h-12.6V6h22.7l6.4,6.3v9.4l-3.5,3.5l5.8,10.6H568.3z M567.3,19.2v-3.9h-3.9v3.9
			H567.3z"/>
		<linearGradient id="SVGID_21_" gradientUnits="userSpaceOnUse" x1="305.9194" y1="-1.1451" x2="305.9194" y2="74.4546">
			<stop  offset="0" style="stop-color:#666666"/>
			<stop  offset="1" style="stop-color:#1A1A1A"/>
		</linearGradient>
		<path class="st23" d="M584.9,36l-5.4-6.4v-5.3h4.3l-4.3-4.3v-7.5l6.4-6.3h16.3l5.7,5.7v5.6h-3.5l4.2,4.3v8l-6.3,6.3H584.9z
			 M595.9,27.3v-1h-3.8v1H595.9z M595.9,15.2v-0.5h-4.3v0.5H595.9z"/>
	</g>
	<g>
		<linearGradient id="SVGID_22_" gradientUnits="userSpaceOnUse" x1="306.1404" y1="2.2675" x2="306.1404" y2="68.8765">
			<stop  offset="0" style="stop-color:#1A1A1A"/>
			<stop  offset="1" style="stop-color:#1A1A1A"/>
		</linearGradient>
		<path class="st24" d="M25.7,35l-1.1-2.8h-8.4L15.2,35H4.7L15,7.4L14.9,7h0.3l0.3-0.7L15.7,7h9.8L36.6,35H25.7z M21.8,25L20,20.3
			L18.5,25H21.8z"/>
		<linearGradient id="SVGID_23_" gradientUnits="userSpaceOnUse" x1="306.1404" y1="2.2675" x2="306.1404" y2="68.8765">
			<stop  offset="0" style="stop-color:#1A1A1A"/>
			<stop  offset="1" style="stop-color:#1A1A1A"/>
		</linearGradient>
		<path class="st25" d="M36.6,35V7H58l5.8,5.8v6.1l-2.2,2.2l2.2,2.2v5.9L58,35H36.6z M53,27.8v-3.5h-5.8v3.5H53z M53,17.7v-3.5h-5.8
			v3.5H53z"/>
		<linearGradient id="SVGID_24_" gradientUnits="userSpaceOnUse" x1="306.1404" y1="2.2675" x2="306.1404" y2="68.8765">
			<stop  offset="0" style="stop-color:#1A1A1A"/>
			<stop  offset="1" style="stop-color:#1A1A1A"/>
		</linearGradient>
		<path class="st26" d="M71,35l-5.8-5.8V12.8L71,7h15.5l5.8,5.8v16.4L86.5,35H71z M81.7,27.7V14.3h-5.9v13.4h2.6H81.7z"/>
		<linearGradient id="SVGID_25_" gradientUnits="userSpaceOnUse" x1="306.1404" y1="2.2675" x2="306.1404" y2="68.8765">
			<stop  offset="0" style="stop-color:#1A1A1A"/>
			<stop  offset="1" style="stop-color:#1A1A1A"/>
		</linearGradient>
		<polygon class="st27" points="99.9,35 94.1,29.2 94.1,7 104.8,7 104.8,27.8 110.5,27.8 110.5,7 121.2,7 121.2,29.2 115.4,35 		"/>
		<linearGradient id="SVGID_26_" gradientUnits="userSpaceOnUse" x1="306.1404" y1="2.2675" x2="306.1404" y2="68.8765">
			<stop  offset="0" style="stop-color:#1A1A1A"/>
			<stop  offset="1" style="stop-color:#1A1A1A"/>
		</linearGradient>
		<polygon class="st28" points="129,35 129,14.7 122.3,14.7 122.3,7 146.8,7 146.8,14.7 140,14.7 140,35 		"/>
		<linearGradient id="SVGID_27_" gradientUnits="userSpaceOnUse" x1="306.1404" y1="2.2675" x2="306.1404" y2="68.8765">
			<stop  offset="0" style="stop-color:#1A1A1A"/>
			<stop  offset="1" style="stop-color:#1A1A1A"/>
		</linearGradient>
		<path class="st29" d="M162.9,35l-4.9-5.8v-4h5.7l-5.7-5.7v-6.7l5.8-5.8h15.5l5.1,5.1v4.2h-4.8l5.5,5.7v7.2l-5.8,5.8H162.9z
			 M174.5,28.3v-3h-5.8v3H174.5z M174.5,16.2v-2.5h-6.3v2.5H174.5z"/>
		<linearGradient id="SVGID_28_" gradientUnits="userSpaceOnUse" x1="306.1404" y1="2.2675" x2="306.1404" y2="68.8765">
			<stop  offset="0" style="stop-color:#1A1A1A"/>
			<stop  offset="1" style="stop-color:#1A1A1A"/>
		</linearGradient>
		<polygon class="st30" points="192.8,35 192.8,14.7 186,14.7 186,7 210.5,7 210.5,14.7 203.8,14.7 203.8,35 		"/>
		<linearGradient id="SVGID_29_" gradientUnits="userSpaceOnUse" x1="306.1404" y1="2.2675" x2="306.1404" y2="68.8765">
			<stop  offset="0" style="stop-color:#1A1A1A"/>
			<stop  offset="1" style="stop-color:#1A1A1A"/>
		</linearGradient>
		<path class="st31" d="M230.2,35l-1.1-2.8h-8.4l-0.9,2.8h-10.5l10.3-27.6L219.4,7h0.3l0.3-0.7l0.3,0.7h9.8L241.1,35H230.2z
			 M226.4,25l-1.8-4.7L223,25H226.4z"/>
		<linearGradient id="SVGID_30_" gradientUnits="userSpaceOnUse" x1="306.1404" y1="2.2675" x2="306.1404" y2="68.8765">
			<stop  offset="0" style="stop-color:#1A1A1A"/>
			<stop  offset="1" style="stop-color:#1A1A1A"/>
		</linearGradient>
		<path class="st32" d="M258.2,35l-3.7-7.8h-2.7V35h-10.6V7h21.3l5.8,5.8v8.6l-3.8,3.8l5.3,9.8H258.2z M257.6,20.2v-5.9h-5.9v5.9
			H257.6z"/>
		<linearGradient id="SVGID_31_" gradientUnits="userSpaceOnUse" x1="306.1404" y1="2.2675" x2="306.1404" y2="68.8765">
			<stop  offset="0" style="stop-color:#1A1A1A"/>
			<stop  offset="1" style="stop-color:#1A1A1A"/>
		</linearGradient>
		<path class="st33" d="M274.6,35l-4.9-5.8v-4h5.7l-5.7-5.7v-6.7l5.8-5.8H291l5.1,5.1v4.2h-4.8l5.5,5.7v7.2L291,35H274.6z
			 M286.2,28.3v-3h-5.8v3H286.2z M286.2,16.2v-2.5h-6.3v2.5H286.2z"/>
		<linearGradient id="SVGID_32_" gradientUnits="userSpaceOnUse" x1="306.1404" y1="2.2675" x2="306.1404" y2="68.8765">
			<stop  offset="0" style="stop-color:#1A1A1A"/>
			<stop  offset="1" style="stop-color:#1A1A1A"/>
		</linearGradient>
		<polygon class="st34" points="315.4,35 315.4,24.4 309.6,24.4 309.6,35 299,35 299,7 309.6,7 309.6,17.2 315.3,17.2 315.3,7 
			326,7 326,35 		"/>
		<linearGradient id="SVGID_33_" gradientUnits="userSpaceOnUse" x1="306.1404" y1="2.2675" x2="306.1404" y2="68.8765">
			<stop  offset="0" style="stop-color:#1A1A1A"/>
			<stop  offset="1" style="stop-color:#1A1A1A"/>
		</linearGradient>
		<polygon class="st35" points="328.2,35 328.2,27.4 330.8,27.4 330.8,14.5 328.2,14.5 328.2,7 344,7 344,14.5 341.4,14.5 
			341.4,27.4 344,27.4 344,35 		"/>
		<linearGradient id="SVGID_34_" gradientUnits="userSpaceOnUse" x1="306.1404" y1="2.2675" x2="306.1404" y2="68.8765">
			<stop  offset="0" style="stop-color:#1A1A1A"/>
			<stop  offset="1" style="stop-color:#1A1A1A"/>
		</linearGradient>
		<path class="st36" d="M346.2,35V7h20.9l5.8,5.8v9.7l-5.8,5.8h-10.5V35H346.2z M362.3,21.1v-6.9h-5.6v6.9H362.3z"/>
		<linearGradient id="SVGID_35_" gradientUnits="userSpaceOnUse" x1="306.1404" y1="2.2675" x2="306.1404" y2="68.8765">
			<stop  offset="0" style="stop-color:#1A1A1A"/>
			<stop  offset="1" style="stop-color:#1A1A1A"/>
		</linearGradient>
		<polygon class="st37" points="390.5,35 390.5,14.7 383.8,14.7 383.8,7 408.3,7 408.3,14.7 401.5,14.7 401.5,35 		"/>
		<linearGradient id="SVGID_36_" gradientUnits="userSpaceOnUse" x1="306.1404" y1="2.2675" x2="306.1404" y2="68.8765">
			<stop  offset="0" style="stop-color:#1A1A1A"/>
			<stop  offset="1" style="stop-color:#1A1A1A"/>
		</linearGradient>
		<path class="st38" d="M426.7,35l-3.7-7.8h-2.7V35h-10.6V7h21.3l5.8,5.8v8.6l-3.8,3.8l5.3,9.8H426.7z M426.1,20.2v-5.9h-5.9v5.9
			H426.1z"/>
		<linearGradient id="SVGID_37_" gradientUnits="userSpaceOnUse" x1="306.1404" y1="2.2675" x2="306.1404" y2="68.8765">
			<stop  offset="0" style="stop-color:#1A1A1A"/>
			<stop  offset="1" style="stop-color:#1A1A1A"/>
		</linearGradient>
		<path class="st39" d="M443.8,35l-5.8-5.8V12.8l5.8-5.8h15.5l5.8,5.8v16.4l-5.8,5.8H443.8z M454.6,27.7V14.3h-5.9v13.4h2.6H454.6z"
			/>
		<linearGradient id="SVGID_38_" gradientUnits="userSpaceOnUse" x1="306.1404" y1="2.2675" x2="306.1404" y2="68.8765">
			<stop  offset="0" style="stop-color:#1A1A1A"/>
			<stop  offset="1" style="stop-color:#1A1A1A"/>
		</linearGradient>
		<path class="st40" d="M472.4,35l-5.8-5.8V12.8l5.8-5.8h15.5l5.8,5.8v16.4l-5.8,5.8H472.4z M483.1,27.7V14.3h-5.9v13.4h2.6H483.1z"
			/>
		<linearGradient id="SVGID_39_" gradientUnits="userSpaceOnUse" x1="306.1404" y1="2.2675" x2="306.1404" y2="68.8765">
			<stop  offset="0" style="stop-color:#1A1A1A"/>
			<stop  offset="1" style="stop-color:#1A1A1A"/>
		</linearGradient>
		<path class="st41" d="M495.7,35V7h20.9l5.8,5.8v9.7l-5.8,5.8h-10.5V35H495.7z M511.8,21.1v-6.9h-5.6v6.9H511.8z"/>
		<linearGradient id="SVGID_40_" gradientUnits="userSpaceOnUse" x1="306.1404" y1="2.2675" x2="306.1404" y2="68.8765">
			<stop  offset="0" style="stop-color:#1A1A1A"/>
			<stop  offset="1" style="stop-color:#1A1A1A"/>
		</linearGradient>
		<polygon class="st42" points="524.2,35 524.2,7 549.7,7 549.7,16.5 539.6,16.5 539.6,14.1 534.9,14.1 534.9,17.3 543.1,17.3 
			543.1,24.3 534.9,24.3 534.9,27.8 539.1,27.8 539.1,25.2 549.7,25.2 549.7,35 		"/>
		<linearGradient id="SVGID_41_" gradientUnits="userSpaceOnUse" x1="306.1404" y1="2.2675" x2="306.1404" y2="68.8765">
			<stop  offset="0" style="stop-color:#1A1A1A"/>
			<stop  offset="1" style="stop-color:#1A1A1A"/>
		</linearGradient>
		<path class="st43" d="M568.9,35l-3.7-7.8h-2.7V35h-10.6V7h21.3l5.8,5.8v8.6l-3.8,3.8l5.3,9.8H568.9z M568.3,20.2v-5.9h-5.9v5.9
			H568.3z"/>
		<linearGradient id="SVGID_42_" gradientUnits="userSpaceOnUse" x1="306.1404" y1="2.2675" x2="306.1404" y2="68.8765">
			<stop  offset="0" style="stop-color:#1A1A1A"/>
			<stop  offset="1" style="stop-color:#1A1A1A"/>
		</linearGradient>
		<path class="st44" d="M585.4,35l-4.9-5.8v-4h5.7l-5.7-5.7v-6.7l5.8-5.8h15.5l5.1,5.1v4.2H602l5.5,5.7v7.2l-5.8,5.8H585.4z
			 M596.9,28.3v-3h-5.8v3H596.9z M596.9,16.2v-2.5h-6.3v2.5H596.9z"/>
	</g>
	<g>
		<linearGradient id="SVGID_43_" gradientUnits="userSpaceOnUse" x1="306.3613" y1="4.3409" x2="306.3613" y2="64.6879">
			<stop  offset="0" style="stop-color:#4D4D4D"/>
			<stop  offset="0.299" style="stop-color:#C3C3C3"/>
			<stop  offset="0.3142" style="stop-color:#ADADAD"/>
			<stop  offset="0.3437" style="stop-color:#888888"/>
			<stop  offset="0.3747" style="stop-color:#696969"/>
			<stop  offset="0.407" style="stop-color:#515151"/>
			<stop  offset="0.4412" style="stop-color:#404040"/>
			<stop  offset="0.4786" style="stop-color:#363636"/>
			<stop  offset="0.5251" style="stop-color:#333333"/>
			<stop  offset="1" style="stop-color:#666666"/>
		</linearGradient>
		<path class="st45" d="M14.5,34H6.2l9.3-24.7l3.8,10.3L14.5,34z M25.3,31.1h-8.5l1.8-5.1h4.7L16.4,8h8.4L35.1,34h-8.7L25.3,31.1z"
			/>
		<linearGradient id="SVGID_44_" gradientUnits="userSpaceOnUse" x1="306.3613" y1="4.3409" x2="306.3613" y2="64.6879">
			<stop  offset="0" style="stop-color:#4D4D4D"/>
			<stop  offset="0.299" style="stop-color:#C3C3C3"/>
			<stop  offset="0.3142" style="stop-color:#ADADAD"/>
			<stop  offset="0.3437" style="stop-color:#888888"/>
			<stop  offset="0.3747" style="stop-color:#696969"/>
			<stop  offset="0.407" style="stop-color:#515151"/>
			<stop  offset="0.4412" style="stop-color:#404040"/>
			<stop  offset="0.4786" style="stop-color:#363636"/>
			<stop  offset="0.5251" style="stop-color:#333333"/>
			<stop  offset="1" style="stop-color:#666666"/>
		</linearGradient>
		<path class="st46" d="M37.6,8h8.6V34h-8.6V8z M54,13.2h-6.4V8h10l5.2,5.2v5.3l-2.6,2.6l2.6,2.6v5.1L57.6,34h-10v-5.2H54v-5.5h-6.4
			v-4.5H54V13.2z"/>
		<linearGradient id="SVGID_45_" gradientUnits="userSpaceOnUse" x1="306.3613" y1="4.3409" x2="306.3613" y2="64.6879">
			<stop  offset="0" style="stop-color:#4D4D4D"/>
			<stop  offset="0.299" style="stop-color:#C3C3C3"/>
			<stop  offset="0.3142" style="stop-color:#ADADAD"/>
			<stop  offset="0.3437" style="stop-color:#888888"/>
			<stop  offset="0.3747" style="stop-color:#696969"/>
			<stop  offset="0.407" style="stop-color:#515151"/>
			<stop  offset="0.4412" style="stop-color:#404040"/>
			<stop  offset="0.4786" style="stop-color:#363636"/>
			<stop  offset="0.5251" style="stop-color:#333333"/>
			<stop  offset="1" style="stop-color:#666666"/>
		</linearGradient>
		<path class="st47" d="M74.8,28.7h3.2V34h-6.6l-5.3-5.2V13.2L71.4,8h6.6v5.3h-3.2V28.7z M82.7,13.3h-3.3V8h6.7l5.2,5.2v15.6
			L86.1,34h-6.7v-5.3h3.3V13.3z"/>
		<linearGradient id="SVGID_46_" gradientUnits="userSpaceOnUse" x1="306.3613" y1="4.3409" x2="306.3613" y2="64.6879">
			<stop  offset="0" style="stop-color:#4D4D4D"/>
			<stop  offset="0.299" style="stop-color:#C3C3C3"/>
			<stop  offset="0.3142" style="stop-color:#ADADAD"/>
			<stop  offset="0.3437" style="stop-color:#888888"/>
			<stop  offset="0.3747" style="stop-color:#696969"/>
			<stop  offset="0.407" style="stop-color:#515151"/>
			<stop  offset="0.4412" style="stop-color:#404040"/>
			<stop  offset="0.4786" style="stop-color:#363636"/>
			<stop  offset="0.5251" style="stop-color:#333333"/>
			<stop  offset="1" style="stop-color:#666666"/>
		</linearGradient>
		<path class="st48" d="M103.8,28.8h3.2V34h-6.6l-5.2-5.2V8h8.7V28.8z M120.2,28.8L115,34h-6.7v-5.2h3.2V8h8.6V28.8z"/>
		<linearGradient id="SVGID_47_" gradientUnits="userSpaceOnUse" x1="306.3613" y1="4.3409" x2="306.3613" y2="64.6879">
			<stop  offset="0" style="stop-color:#4D4D4D"/>
			<stop  offset="0.299" style="stop-color:#C3C3C3"/>
			<stop  offset="0.3142" style="stop-color:#ADADAD"/>
			<stop  offset="0.3437" style="stop-color:#888888"/>
			<stop  offset="0.3747" style="stop-color:#696969"/>
			<stop  offset="0.407" style="stop-color:#515151"/>
			<stop  offset="0.4412" style="stop-color:#404040"/>
			<stop  offset="0.4786" style="stop-color:#363636"/>
			<stop  offset="0.5251" style="stop-color:#333333"/>
			<stop  offset="1" style="stop-color:#666666"/>
		</linearGradient>
		<path class="st49" d="M123.3,8h22.5v5.6h-22.5V8z M130,15h9V34h-9V15z"/>
		<linearGradient id="SVGID_48_" gradientUnits="userSpaceOnUse" x1="306.3613" y1="4.3409" x2="306.3613" y2="64.6879">
			<stop  offset="0" style="stop-color:#4D4D4D"/>
			<stop  offset="0.299" style="stop-color:#C3C3C3"/>
			<stop  offset="0.3142" style="stop-color:#ADADAD"/>
			<stop  offset="0.3437" style="stop-color:#888888"/>
			<stop  offset="0.3747" style="stop-color:#696969"/>
			<stop  offset="0.407" style="stop-color:#515151"/>
			<stop  offset="0.4412" style="stop-color:#404040"/>
			<stop  offset="0.4786" style="stop-color:#363636"/>
			<stop  offset="0.5251" style="stop-color:#333333"/>
			<stop  offset="1" style="stop-color:#666666"/>
		</linearGradient>
		<path class="st50" d="M175.5,34v-9.7h-11.2l-5.2-5.2v-5.8l5.2-5.2h2.9v9.2h11.9l5,5.2v6.3l-5.2,5.2H175.5z M159,26.2h8.6v3.1h6.4
			V34h-10.7l-4.4-5.2V26.2z M168.5,12.7V8h10.4l4.5,4.5v2.8h-7.9v-2.6H168.5z"/>
		<linearGradient id="SVGID_49_" gradientUnits="userSpaceOnUse" x1="306.3613" y1="4.3409" x2="306.3613" y2="64.6879">
			<stop  offset="0" style="stop-color:#4D4D4D"/>
			<stop  offset="0.299" style="stop-color:#C3C3C3"/>
			<stop  offset="0.3142" style="stop-color:#ADADAD"/>
			<stop  offset="0.3437" style="stop-color:#888888"/>
			<stop  offset="0.3747" style="stop-color:#696969"/>
			<stop  offset="0.407" style="stop-color:#515151"/>
			<stop  offset="0.4412" style="stop-color:#404040"/>
			<stop  offset="0.4786" style="stop-color:#363636"/>
			<stop  offset="0.5251" style="stop-color:#333333"/>
			<stop  offset="1" style="stop-color:#666666"/>
		</linearGradient>
		<path class="st51" d="M187,8h22.5v5.6H187V8z M193.8,15h9V34h-9V15z"/>
		<linearGradient id="SVGID_50_" gradientUnits="userSpaceOnUse" x1="306.3613" y1="4.3409" x2="306.3613" y2="64.6879">
			<stop  offset="0" style="stop-color:#4D4D4D"/>
			<stop  offset="0.299" style="stop-color:#C3C3C3"/>
			<stop  offset="0.3142" style="stop-color:#ADADAD"/>
			<stop  offset="0.3437" style="stop-color:#888888"/>
			<stop  offset="0.3747" style="stop-color:#696969"/>
			<stop  offset="0.407" style="stop-color:#515151"/>
			<stop  offset="0.4412" style="stop-color:#404040"/>
			<stop  offset="0.4786" style="stop-color:#363636"/>
			<stop  offset="0.5251" style="stop-color:#333333"/>
			<stop  offset="1" style="stop-color:#666666"/>
		</linearGradient>
		<path class="st52" d="M219,34h-8.3L220,9.2l3.8,10.3L219,34z M229.8,31.1h-8.5l1.8-5.1h4.7L220.9,8h8.4L239.7,34h-8.7L229.8,31.1z
			"/>
		<linearGradient id="SVGID_51_" gradientUnits="userSpaceOnUse" x1="306.3613" y1="4.3409" x2="306.3613" y2="64.6879">
			<stop  offset="0" style="stop-color:#4D4D4D"/>
			<stop  offset="0.299" style="stop-color:#C3C3C3"/>
			<stop  offset="0.3142" style="stop-color:#ADADAD"/>
			<stop  offset="0.3437" style="stop-color:#888888"/>
			<stop  offset="0.3747" style="stop-color:#696969"/>
			<stop  offset="0.407" style="stop-color:#515151"/>
			<stop  offset="0.4412" style="stop-color:#404040"/>
			<stop  offset="0.4786" style="stop-color:#363636"/>
			<stop  offset="0.5251" style="stop-color:#333333"/>
			<stop  offset="1" style="stop-color:#666666"/>
		</linearGradient>
		<path class="st53" d="M242.1,34V8h8.6V34H242.1z M252.1,13.2V8h9.9l5.2,5.2V21l-4,4l-0.3-0.5l-8.1,1.1l0.3,0.7h-3v-5h6.5v-7.9
			H252.1z M268.1,34h-9.2l-3.7-7.8h6.9l1.2-1.2L268.1,34z"/>
		<linearGradient id="SVGID_52_" gradientUnits="userSpaceOnUse" x1="306.3613" y1="4.3409" x2="306.3613" y2="64.6879">
			<stop  offset="0" style="stop-color:#4D4D4D"/>
			<stop  offset="0.299" style="stop-color:#C3C3C3"/>
			<stop  offset="0.3142" style="stop-color:#ADADAD"/>
			<stop  offset="0.3437" style="stop-color:#888888"/>
			<stop  offset="0.3747" style="stop-color:#696969"/>
			<stop  offset="0.407" style="stop-color:#515151"/>
			<stop  offset="0.4412" style="stop-color:#404040"/>
			<stop  offset="0.4786" style="stop-color:#363636"/>
			<stop  offset="0.5251" style="stop-color:#333333"/>
			<stop  offset="1" style="stop-color:#666666"/>
		</linearGradient>
		<path class="st54" d="M287.2,34v-9.7h-11.2l-5.2-5.2v-5.8l5.2-5.2h2.9v9.2h11.9l5,5.2v6.3l-5.2,5.2H287.2z M270.7,26.2h8.6v3.1
			h6.4V34h-10.7l-4.4-5.2V26.2z M280.2,12.7V8h10.4l4.5,4.5v2.8h-7.9v-2.6H280.2z"/>
		<linearGradient id="SVGID_53_" gradientUnits="userSpaceOnUse" x1="306.3613" y1="4.3409" x2="306.3613" y2="64.6879">
			<stop  offset="0" style="stop-color:#4D4D4D"/>
			<stop  offset="0.299" style="stop-color:#C3C3C3"/>
			<stop  offset="0.3142" style="stop-color:#ADADAD"/>
			<stop  offset="0.3437" style="stop-color:#888888"/>
			<stop  offset="0.3747" style="stop-color:#696969"/>
			<stop  offset="0.407" style="stop-color:#515151"/>
			<stop  offset="0.4412" style="stop-color:#404040"/>
			<stop  offset="0.4786" style="stop-color:#363636"/>
			<stop  offset="0.5251" style="stop-color:#333333"/>
			<stop  offset="1" style="stop-color:#666666"/>
		</linearGradient>
		<path class="st55" d="M308.6,34H300V8h8.6V34z M316.3,8h8.7V34h-8.7V23.4H310v-5.2h6.3V8z"/>
		<linearGradient id="SVGID_54_" gradientUnits="userSpaceOnUse" x1="306.3613" y1="4.3409" x2="306.3613" y2="64.6879">
			<stop  offset="0" style="stop-color:#4D4D4D"/>
			<stop  offset="0.299" style="stop-color:#C3C3C3"/>
			<stop  offset="0.3142" style="stop-color:#ADADAD"/>
			<stop  offset="0.3437" style="stop-color:#888888"/>
			<stop  offset="0.3747" style="stop-color:#696969"/>
			<stop  offset="0.407" style="stop-color:#515151"/>
			<stop  offset="0.4412" style="stop-color:#404040"/>
			<stop  offset="0.4786" style="stop-color:#363636"/>
			<stop  offset="0.5251" style="stop-color:#333333"/>
			<stop  offset="1" style="stop-color:#666666"/>
		</linearGradient>
		<path class="st56" d="M329.2,28.4h2.6V13.5h-2.6V8H343v5.5h-2.6v14.9h2.6V34h-13.8V28.4z"/>
		<linearGradient id="SVGID_55_" gradientUnits="userSpaceOnUse" x1="306.3613" y1="4.3409" x2="306.3613" y2="64.6879">
			<stop  offset="0" style="stop-color:#4D4D4D"/>
			<stop  offset="0.299" style="stop-color:#C3C3C3"/>
			<stop  offset="0.3142" style="stop-color:#ADADAD"/>
			<stop  offset="0.3437" style="stop-color:#888888"/>
			<stop  offset="0.3747" style="stop-color:#696969"/>
			<stop  offset="0.407" style="stop-color:#515151"/>
			<stop  offset="0.4412" style="stop-color:#404040"/>
			<stop  offset="0.4786" style="stop-color:#363636"/>
			<stop  offset="0.5251" style="stop-color:#333333"/>
			<stop  offset="1" style="stop-color:#666666"/>
		</linearGradient>
		<path class="st57" d="M347.2,34V8h8.5V34H347.2z M357,13.2V8h9.7l5.2,5.2v8.9l-5.2,5.2H357v-5.2h6.3v-8.9H357z"/>
		<linearGradient id="SVGID_56_" gradientUnits="userSpaceOnUse" x1="306.3613" y1="4.3409" x2="306.3613" y2="64.6879">
			<stop  offset="0" style="stop-color:#4D4D4D"/>
			<stop  offset="0.299" style="stop-color:#C3C3C3"/>
			<stop  offset="0.3142" style="stop-color:#ADADAD"/>
			<stop  offset="0.3437" style="stop-color:#888888"/>
			<stop  offset="0.3747" style="stop-color:#696969"/>
			<stop  offset="0.407" style="stop-color:#515151"/>
			<stop  offset="0.4412" style="stop-color:#404040"/>
			<stop  offset="0.4786" style="stop-color:#363636"/>
			<stop  offset="0.5251" style="stop-color:#333333"/>
			<stop  offset="1" style="stop-color:#666666"/>
		</linearGradient>
		<path class="st58" d="M384.8,8h22.5v5.6h-22.5V8z M391.5,15h9V34h-9V15z"/>
		<linearGradient id="SVGID_57_" gradientUnits="userSpaceOnUse" x1="306.3613" y1="4.3409" x2="306.3613" y2="64.6879">
			<stop  offset="0" style="stop-color:#4D4D4D"/>
			<stop  offset="0.299" style="stop-color:#C3C3C3"/>
			<stop  offset="0.3142" style="stop-color:#ADADAD"/>
			<stop  offset="0.3437" style="stop-color:#888888"/>
			<stop  offset="0.3747" style="stop-color:#696969"/>
			<stop  offset="0.407" style="stop-color:#515151"/>
			<stop  offset="0.4412" style="stop-color:#404040"/>
			<stop  offset="0.4786" style="stop-color:#363636"/>
			<stop  offset="0.5251" style="stop-color:#333333"/>
			<stop  offset="1" style="stop-color:#666666"/>
		</linearGradient>
		<path class="st59" d="M410.6,34V8h8.6V34H410.6z M420.6,13.2V8h9.9l5.2,5.2V21l-4,4l-0.3-0.5l-8.1,1.1l0.3,0.7h-3v-5h6.5v-7.9
			H420.6z M436.5,34h-9.2l-3.7-7.8h6.9l1.2-1.2L436.5,34z"/>
		<linearGradient id="SVGID_58_" gradientUnits="userSpaceOnUse" x1="306.3613" y1="4.3409" x2="306.3613" y2="64.6879">
			<stop  offset="0" style="stop-color:#4D4D4D"/>
			<stop  offset="0.299" style="stop-color:#C3C3C3"/>
			<stop  offset="0.3142" style="stop-color:#ADADAD"/>
			<stop  offset="0.3437" style="stop-color:#888888"/>
			<stop  offset="0.3747" style="stop-color:#696969"/>
			<stop  offset="0.407" style="stop-color:#515151"/>
			<stop  offset="0.4412" style="stop-color:#404040"/>
			<stop  offset="0.4786" style="stop-color:#363636"/>
			<stop  offset="0.5251" style="stop-color:#333333"/>
			<stop  offset="1" style="stop-color:#666666"/>
		</linearGradient>
		<path class="st60" d="M447.6,28.7h3.2V34h-6.6l-5.3-5.2V13.2l5.3-5.2h6.6v5.3h-3.2V28.7z M455.6,13.3h-3.3V8h6.7l5.2,5.2v15.6
			l-5.2,5.2h-6.7v-5.3h3.3V13.3z"/>
		<linearGradient id="SVGID_59_" gradientUnits="userSpaceOnUse" x1="306.3613" y1="4.3409" x2="306.3613" y2="64.6879">
			<stop  offset="0" style="stop-color:#4D4D4D"/>
			<stop  offset="0.299" style="stop-color:#C3C3C3"/>
			<stop  offset="0.3142" style="stop-color:#ADADAD"/>
			<stop  offset="0.3437" style="stop-color:#888888"/>
			<stop  offset="0.3747" style="stop-color:#696969"/>
			<stop  offset="0.407" style="stop-color:#515151"/>
			<stop  offset="0.4412" style="stop-color:#404040"/>
			<stop  offset="0.4786" style="stop-color:#363636"/>
			<stop  offset="0.5251" style="stop-color:#333333"/>
			<stop  offset="1" style="stop-color:#666666"/>
		</linearGradient>
		<path class="st61" d="M476.2,28.7h3.2V34h-6.6l-5.3-5.2V13.2l5.3-5.2h6.6v5.3h-3.2V28.7z M484.1,13.3h-3.3V8h6.7l5.2,5.2v15.6
			l-5.2,5.2h-6.7v-5.3h3.3V13.3z"/>
		<linearGradient id="SVGID_60_" gradientUnits="userSpaceOnUse" x1="306.3613" y1="4.3409" x2="306.3613" y2="64.6879">
			<stop  offset="0" style="stop-color:#4D4D4D"/>
			<stop  offset="0.299" style="stop-color:#C3C3C3"/>
			<stop  offset="0.3142" style="stop-color:#ADADAD"/>
			<stop  offset="0.3437" style="stop-color:#888888"/>
			<stop  offset="0.3747" style="stop-color:#696969"/>
			<stop  offset="0.407" style="stop-color:#515151"/>
			<stop  offset="0.4412" style="stop-color:#404040"/>
			<stop  offset="0.4786" style="stop-color:#363636"/>
			<stop  offset="0.5251" style="stop-color:#333333"/>
			<stop  offset="1" style="stop-color:#666666"/>
		</linearGradient>
		<path class="st62" d="M496.7,34V8h8.5V34H496.7z M506.5,13.2V8h9.7l5.2,5.2v8.9l-5.2,5.2h-9.7v-5.2h6.3v-8.9H506.5z"/>
		<linearGradient id="SVGID_61_" gradientUnits="userSpaceOnUse" x1="306.3613" y1="4.3409" x2="306.3613" y2="64.6879">
			<stop  offset="0" style="stop-color:#4D4D4D"/>
			<stop  offset="0.299" style="stop-color:#C3C3C3"/>
			<stop  offset="0.3142" style="stop-color:#ADADAD"/>
			<stop  offset="0.3437" style="stop-color:#888888"/>
			<stop  offset="0.3747" style="stop-color:#696969"/>
			<stop  offset="0.407" style="stop-color:#515151"/>
			<stop  offset="0.4412" style="stop-color:#404040"/>
			<stop  offset="0.4786" style="stop-color:#363636"/>
			<stop  offset="0.5251" style="stop-color:#333333"/>
			<stop  offset="1" style="stop-color:#666666"/>
		</linearGradient>
		<path class="st63" d="M533.9,23.3V34h-8.6V8h8.6v10.3h8.3v5H533.9z M535.2,13.1V8h13.5v7.5h-8.1v-2.5H535.2z M535.2,34v-5.2h4.9
			v-2.6h8.6V34H535.2z"/>
		<linearGradient id="SVGID_62_" gradientUnits="userSpaceOnUse" x1="306.3613" y1="4.3409" x2="306.3613" y2="64.6879">
			<stop  offset="0" style="stop-color:#4D4D4D"/>
			<stop  offset="0.299" style="stop-color:#C3C3C3"/>
			<stop  offset="0.3142" style="stop-color:#ADADAD"/>
			<stop  offset="0.3437" style="stop-color:#888888"/>
			<stop  offset="0.3747" style="stop-color:#696969"/>
			<stop  offset="0.407" style="stop-color:#515151"/>
			<stop  offset="0.4412" style="stop-color:#404040"/>
			<stop  offset="0.4786" style="stop-color:#363636"/>
			<stop  offset="0.5251" style="stop-color:#333333"/>
			<stop  offset="1" style="stop-color:#666666"/>
		</linearGradient>
		<path class="st64" d="M552.9,34V8h8.6V34H552.9z M562.9,13.2V8h9.9l5.2,5.2V21l-4,4l-0.3-0.5l-8.1,1.1l0.3,0.7h-3v-5h6.5v-7.9
			H562.9z M578.8,34h-9.2l-3.7-7.8h6.9l1.2-1.2L578.8,34z"/>
		<linearGradient id="SVGID_63_" gradientUnits="userSpaceOnUse" x1="306.3613" y1="4.3409" x2="306.3613" y2="64.6879">
			<stop  offset="0" style="stop-color:#4D4D4D"/>
			<stop  offset="0.299" style="stop-color:#C3C3C3"/>
			<stop  offset="0.3142" style="stop-color:#ADADAD"/>
			<stop  offset="0.3437" style="stop-color:#888888"/>
			<stop  offset="0.3747" style="stop-color:#696969"/>
			<stop  offset="0.407" style="stop-color:#515151"/>
			<stop  offset="0.4412" style="stop-color:#404040"/>
			<stop  offset="0.4786" style="stop-color:#363636"/>
			<stop  offset="0.5251" style="stop-color:#333333"/>
			<stop  offset="1" style="stop-color:#666666"/>
		</linearGradient>
		<path class="st65" d="M597.9,34v-9.7h-11.2l-5.2-5.2v-5.8l5.2-5.2h2.9v9.2h11.9l5,5.2v6.3l-5.2,5.2H597.9z M581.5,26.2h8.6v3.1
			h6.4V34h-10.7l-4.4-5.2V26.2z M591,12.7V8h10.4l4.5,4.5v2.8h-7.9v-2.6H591z"/>
	</g>
</g>
</svg>
