<?xml version="1.0" encoding="utf-8"?>
<!-- Generator: Adobe Illustrator 22.0.1, SVG Export Plug-In . SVG Version: 6.00 Build 0)  -->
<svg version="1.1" id="Layer_1" xmlns="http://www.w3.org/2000/svg" xmlns:xlink="http://www.w3.org/1999/xlink" x="0px" y="0px"
	 viewBox="0 0 198.3 49.5" style="enable-background:new 0 0 198.3 49.5;" xml:space="preserve">
<style type="text/css">
	.st0{fill:none;}
	.st1{font-family:'BlackOpsOne-Regular';}
	.st2{font-size:40px;}
	.st3{fill:url(#SVGID_1_);}
	.st4{fill:url(#SVGID_2_);}
	.st5{fill:url(#SVGID_3_);}
	.st6{fill:url(#SVGID_4_);}
	.st7{fill:url(#SVGID_5_);}
	.st8{fill:url(#SVGID_6_);}
	.st9{fill:url(#SVGID_7_);}
	.st10{fill:url(#SVGID_8_);}
	.st11{fill:url(#SVGID_9_);}
	.st12{fill:url(#SVGID_10_);}
	.st13{fill:url(#SVGID_11_);}
	.st14{fill:url(#SVGID_12_);}
	.st15{fill:url(#SVGID_13_);}
	.st16{fill:url(#SVGID_14_);}
	.st17{fill:url(#SVGID_15_);}
	.st18{fill:url(#SVGID_16_);}
	.st19{fill:url(#SVGID_17_);}
	.st20{fill:url(#SVGID_18_);}
	.st21{fill:url(#SVGID_19_);}
	.st22{fill:url(#SVGID_20_);}
	.st23{fill:url(#SVGID_21_);}
</style>
<g>
	<rect x="6" y="5.3" class="st0" width="190" height="39"/>
	<text transform="matrix(1 0 0 1 6 33.959)" class="st1 st2">GALLERY</text>
	<g>
		<linearGradient id="SVGID_1_" gradientUnits="userSpaceOnUse" x1="102.9963" y1="-1.1451" x2="102.9963" y2="74.4546">
			<stop  offset="0" style="stop-color:#666666"/>
			<stop  offset="1" style="stop-color:#1A1A1A"/>
		</linearGradient>
		<path class="st3" d="M12.6,36l-6.3-6.3V12.4L12.6,6h17.1l5.6,6.4V36H12.6z M23.6,26.8L23.6,26.8l-4.2-0.1v-9.1h3.2v-2.4h-3.8v11.6
			H23.6z"/>
		<linearGradient id="SVGID_2_" gradientUnits="userSpaceOnUse" x1="102.9963" y1="-1.1451" x2="102.9963" y2="74.4546">
			<stop  offset="0" style="stop-color:#666666"/>
			<stop  offset="1" style="stop-color:#1A1A1A"/>
		</linearGradient>
		<path class="st4" d="M54.2,36l-1.1-2.8h-7L45.2,36H32.5L43.2,7.4L42.7,6h1l1-2.6L45.6,6h9.8L67.3,36H54.2z M49.6,24l-0.3-0.7
			L49.1,24H49.6z"/>
		<linearGradient id="SVGID_3_" gradientUnits="userSpaceOnUse" x1="102.9963" y1="-1.1451" x2="102.9963" y2="74.4546">
			<stop  offset="0" style="stop-color:#666666"/>
			<stop  offset="1" style="stop-color:#1A1A1A"/>
		</linearGradient>
		<polygon class="st5" points="64.8,36 64.8,6 77.4,6 77.4,26.8 79.1,26.8 79.1,23.5 90.9,23.5 90.9,36 		"/>
		<linearGradient id="SVGID_4_" gradientUnits="userSpaceOnUse" x1="102.9963" y1="-1.1451" x2="102.9963" y2="74.4546">
			<stop  offset="0" style="stop-color:#666666"/>
			<stop  offset="1" style="stop-color:#1A1A1A"/>
		</linearGradient>
		<polygon class="st6" points="89.5,36 89.5,6 102.2,6 102.2,26.8 103.8,26.8 103.8,23.5 115.6,23.5 115.6,36 		"/>
		<linearGradient id="SVGID_5_" gradientUnits="userSpaceOnUse" x1="102.9963" y1="-1.1451" x2="102.9963" y2="74.4546">
			<stop  offset="0" style="stop-color:#666666"/>
			<stop  offset="1" style="stop-color:#1A1A1A"/>
		</linearGradient>
		<path class="st7" d="M114.3,36V6h27.5v11.5h-6.6v6.6h6.6V36H114.3z M129.1,26.8v-1.5h-2.2v1.5H129.1z M129.6,16.3v-1.3h-2.7v1.3
			H129.6z"/>
		<linearGradient id="SVGID_6_" gradientUnits="userSpaceOnUse" x1="102.9963" y1="-1.1451" x2="102.9963" y2="74.4546">
			<stop  offset="0" style="stop-color:#666666"/>
			<stop  offset="1" style="stop-color:#1A1A1A"/>
		</linearGradient>
		<path class="st8" d="M159.4,36l-3.7-7.8h-1.1V36h-12.6V6h22.7l6.4,6.3v9.4l-3.5,3.5l5.8,10.6H159.4z M158.4,19.2v-3.9h-3.9v3.9
			H158.4z"/>
		<linearGradient id="SVGID_7_" gradientUnits="userSpaceOnUse" x1="102.9963" y1="-1.1451" x2="102.9963" y2="74.4546">
			<stop  offset="0" style="stop-color:#666666"/>
			<stop  offset="1" style="stop-color:#1A1A1A"/>
		</linearGradient>
		<polygon class="st9" points="176.9,36 176.9,26.2 166.9,6 179.9,6 183.3,13 187,6 199.7,6 189.6,26.1 189.6,36 		"/>
	</g>
	<g>
		<linearGradient id="SVGID_8_" gradientUnits="userSpaceOnUse" x1="102.6819" y1="2.2675" x2="102.6819" y2="68.8765">
			<stop  offset="0" style="stop-color:#1A1A1A"/>
			<stop  offset="1" style="stop-color:#1A1A1A"/>
		</linearGradient>
		<polygon class="st10" points="13,35 7.2,29.2 7.2,12.8 13,7 29.2,7 34.3,12.8 34.3,16.8 23.7,16.8 23.7,14.2 17.9,14.2 17.9,27.8 
			24.6,27.8 24.6,25.7 20.4,25.7 20.4,18.6 34.3,18.6 34.3,35 		"/>
		<linearGradient id="SVGID_9_" gradientUnits="userSpaceOnUse" x1="102.6819" y1="2.2675" x2="102.6819" y2="68.8765">
			<stop  offset="0" style="stop-color:#1A1A1A"/>
			<stop  offset="1" style="stop-color:#1A1A1A"/>
		</linearGradient>
		<path class="st11" d="M54.9,35l-1.1-2.8h-8.4L44.4,35H33.9L44.2,7.4L44.1,7h0.3l0.3-0.7L44.9,7h9.8L65.8,35H54.9z M51,25l-1.8-4.7
			L47.7,25H51z"/>
		<linearGradient id="SVGID_10_" gradientUnits="userSpaceOnUse" x1="102.6819" y1="2.2675" x2="102.6819" y2="68.8765">
			<stop  offset="0" style="stop-color:#1A1A1A"/>
			<stop  offset="1" style="stop-color:#1A1A1A"/>
		</linearGradient>
		<polygon class="st12" points="65.8,35 65.8,7 76.4,7 76.4,27.8 80.1,27.8 80.1,24.5 89.9,24.5 89.9,35 		"/>
		<linearGradient id="SVGID_11_" gradientUnits="userSpaceOnUse" x1="102.6819" y1="2.2675" x2="102.6819" y2="68.8765">
			<stop  offset="0" style="stop-color:#1A1A1A"/>
			<stop  offset="1" style="stop-color:#1A1A1A"/>
		</linearGradient>
		<polygon class="st13" points="90.5,35 90.5,7 101.2,7 101.2,27.8 104.8,27.8 104.8,24.5 114.6,24.5 114.6,35 		"/>
		<linearGradient id="SVGID_12_" gradientUnits="userSpaceOnUse" x1="102.6819" y1="2.2675" x2="102.6819" y2="68.8765">
			<stop  offset="0" style="stop-color:#1A1A1A"/>
			<stop  offset="1" style="stop-color:#1A1A1A"/>
		</linearGradient>
		<polygon class="st14" points="115.3,35 115.3,7 140.8,7 140.8,16.5 130.6,16.5 130.6,14.1 125.9,14.1 125.9,17.3 134.2,17.3 
			134.2,24.3 125.9,24.3 125.9,27.8 130.1,27.8 130.1,25.2 140.8,25.2 140.8,35 		"/>
		<linearGradient id="SVGID_13_" gradientUnits="userSpaceOnUse" x1="102.6819" y1="2.2675" x2="102.6819" y2="68.8765">
			<stop  offset="0" style="stop-color:#1A1A1A"/>
			<stop  offset="1" style="stop-color:#1A1A1A"/>
		</linearGradient>
		<path class="st15" d="M160,35l-3.7-7.8h-2.7V35h-10.6V7h21.3l5.8,5.8v8.6l-3.8,3.8l5.3,9.8H160z M159.4,20.2v-5.9h-5.9v5.9H159.4z
			"/>
		<linearGradient id="SVGID_14_" gradientUnits="userSpaceOnUse" x1="102.6819" y1="2.2675" x2="102.6819" y2="68.8765">
			<stop  offset="0" style="stop-color:#1A1A1A"/>
			<stop  offset="1" style="stop-color:#1A1A1A"/>
		</linearGradient>
		<polygon class="st16" points="177.9,35 177.9,26 168.5,7 179.2,7 183.2,15.2 187.6,7 198.1,7 188.5,26 188.6,26.1 188.6,35 		"/>
	</g>
	<g>
		<linearGradient id="SVGID_15_" gradientUnits="userSpaceOnUse" x1="102.3672" y1="4.3409" x2="102.3672" y2="64.6879">
			<stop  offset="0" style="stop-color:#4D4D4D"/>
			<stop  offset="0.299" style="stop-color:#C3C3C3"/>
			<stop  offset="0.3142" style="stop-color:#ADADAD"/>
			<stop  offset="0.3437" style="stop-color:#888888"/>
			<stop  offset="0.3747" style="stop-color:#696969"/>
			<stop  offset="0.407" style="stop-color:#515151"/>
			<stop  offset="0.4412" style="stop-color:#404040"/>
			<stop  offset="0.4786" style="stop-color:#363636"/>
			<stop  offset="0.5251" style="stop-color:#333333"/>
			<stop  offset="1" style="stop-color:#666666"/>
		</linearGradient>
		<path class="st17" d="M16.9,28.8h7.4V34H13.4l-5.2-5.2V13.2L13.4,8h3.5V28.8z M18.2,13.2V8h10.5l4.5,5.2v2.6h-8.6v-2.6H18.2z
			 M21.4,19.6h11.9V34h-7.7v-9.2h-4.2V19.6z"/>
		<linearGradient id="SVGID_16_" gradientUnits="userSpaceOnUse" x1="102.3672" y1="4.3409" x2="102.3672" y2="64.6879">
			<stop  offset="0" style="stop-color:#4D4D4D"/>
			<stop  offset="0.299" style="stop-color:#C3C3C3"/>
			<stop  offset="0.3142" style="stop-color:#ADADAD"/>
			<stop  offset="0.3437" style="stop-color:#888888"/>
			<stop  offset="0.3747" style="stop-color:#696969"/>
			<stop  offset="0.407" style="stop-color:#515151"/>
			<stop  offset="0.4412" style="stop-color:#404040"/>
			<stop  offset="0.4786" style="stop-color:#363636"/>
			<stop  offset="0.5251" style="stop-color:#333333"/>
			<stop  offset="1" style="stop-color:#666666"/>
		</linearGradient>
		<path class="st18" d="M43.7,34h-8.3l9.3-24.7l3.8,10.3L43.7,34z M54.5,31.1H46l1.8-5.1h4.7L45.6,8H54L64.3,34h-8.7L54.5,31.1z"/>
		<linearGradient id="SVGID_17_" gradientUnits="userSpaceOnUse" x1="102.3672" y1="4.3409" x2="102.3672" y2="64.6879">
			<stop  offset="0" style="stop-color:#4D4D4D"/>
			<stop  offset="0.299" style="stop-color:#C3C3C3"/>
			<stop  offset="0.3142" style="stop-color:#ADADAD"/>
			<stop  offset="0.3437" style="stop-color:#888888"/>
			<stop  offset="0.3747" style="stop-color:#696969"/>
			<stop  offset="0.407" style="stop-color:#515151"/>
			<stop  offset="0.4412" style="stop-color:#404040"/>
			<stop  offset="0.4786" style="stop-color:#363636"/>
			<stop  offset="0.5251" style="stop-color:#333333"/>
			<stop  offset="1" style="stop-color:#666666"/>
		</linearGradient>
		<path class="st19" d="M66.8,34V8h8.6V34H66.8z M76.8,34v-5.2h4.3v-3.3h7.8V34H76.8z"/>
		<linearGradient id="SVGID_18_" gradientUnits="userSpaceOnUse" x1="102.3672" y1="4.3409" x2="102.3672" y2="64.6879">
			<stop  offset="0" style="stop-color:#4D4D4D"/>
			<stop  offset="0.299" style="stop-color:#C3C3C3"/>
			<stop  offset="0.3142" style="stop-color:#ADADAD"/>
			<stop  offset="0.3437" style="stop-color:#888888"/>
			<stop  offset="0.3747" style="stop-color:#696969"/>
			<stop  offset="0.407" style="stop-color:#515151"/>
			<stop  offset="0.4412" style="stop-color:#404040"/>
			<stop  offset="0.4786" style="stop-color:#363636"/>
			<stop  offset="0.5251" style="stop-color:#333333"/>
			<stop  offset="1" style="stop-color:#666666"/>
		</linearGradient>
		<path class="st20" d="M91.5,34V8h8.6V34H91.5z M101.5,34v-5.2h4.3v-3.3h7.8V34H101.5z"/>
		<linearGradient id="SVGID_19_" gradientUnits="userSpaceOnUse" x1="102.3672" y1="4.3409" x2="102.3672" y2="64.6879">
			<stop  offset="0" style="stop-color:#4D4D4D"/>
			<stop  offset="0.299" style="stop-color:#C3C3C3"/>
			<stop  offset="0.3142" style="stop-color:#ADADAD"/>
			<stop  offset="0.3437" style="stop-color:#888888"/>
			<stop  offset="0.3747" style="stop-color:#696969"/>
			<stop  offset="0.407" style="stop-color:#515151"/>
			<stop  offset="0.4412" style="stop-color:#404040"/>
			<stop  offset="0.4786" style="stop-color:#363636"/>
			<stop  offset="0.5251" style="stop-color:#333333"/>
			<stop  offset="1" style="stop-color:#666666"/>
		</linearGradient>
		<path class="st21" d="M124.9,23.3V34h-8.6V8h8.6v10.3h8.3v5H124.9z M126.3,13.1V8h13.5v7.5h-8.1v-2.5H126.3z M126.3,34v-5.2h4.9
			v-2.6h8.6V34H126.3z"/>
		<linearGradient id="SVGID_20_" gradientUnits="userSpaceOnUse" x1="102.3672" y1="4.3409" x2="102.3672" y2="64.6879">
			<stop  offset="0" style="stop-color:#4D4D4D"/>
			<stop  offset="0.299" style="stop-color:#C3C3C3"/>
			<stop  offset="0.3142" style="stop-color:#ADADAD"/>
			<stop  offset="0.3437" style="stop-color:#888888"/>
			<stop  offset="0.3747" style="stop-color:#696969"/>
			<stop  offset="0.407" style="stop-color:#515151"/>
			<stop  offset="0.4412" style="stop-color:#404040"/>
			<stop  offset="0.4786" style="stop-color:#363636"/>
			<stop  offset="0.5251" style="stop-color:#333333"/>
			<stop  offset="1" style="stop-color:#666666"/>
		</linearGradient>
		<path class="st22" d="M143.9,34V8h8.6V34H143.9z M153.9,13.2V8h9.9l5.2,5.2V21l-4,4l-0.3-0.5l-8.1,1.1l0.3,0.7h-3v-5h6.5v-7.9
			H153.9z M169.8,34h-9.2l-3.7-7.8h6.9L165,25L169.8,34z"/>
		<linearGradient id="SVGID_21_" gradientUnits="userSpaceOnUse" x1="102.3672" y1="4.3409" x2="102.3672" y2="64.6879">
			<stop  offset="0" style="stop-color:#4D4D4D"/>
			<stop  offset="0.299" style="stop-color:#C3C3C3"/>
			<stop  offset="0.3142" style="stop-color:#ADADAD"/>
			<stop  offset="0.3437" style="stop-color:#888888"/>
			<stop  offset="0.3747" style="stop-color:#696969"/>
			<stop  offset="0.407" style="stop-color:#515151"/>
			<stop  offset="0.4412" style="stop-color:#404040"/>
			<stop  offset="0.4786" style="stop-color:#363636"/>
			<stop  offset="0.5251" style="stop-color:#333333"/>
			<stop  offset="1" style="stop-color:#666666"/>
		</linearGradient>
		<path class="st23" d="M178.9,25.7L170.1,8h8.5l9,18.3V34h-8.7V25.7z M188.1,24.5l-4.2-8.5l4.3-7.9h8.3L188.1,24.5z"/>
	</g>
</g>
</svg>
