<?xml version="1.0" encoding="utf-8"?>
<!-- Generator: Adobe Illustrator 22.0.1, SVG Export Plug-In . SVG Version: 6.00 Build 0)  -->
<svg version="1.1" id="Layer_1" xmlns="http://www.w3.org/2000/svg" xmlns:xlink="http://www.w3.org/1999/xlink" x="0px" y="0px"
	 viewBox="0 0 359.6 49.5" style="enable-background:new 0 0 359.6 49.5;" xml:space="preserve">
<style type="text/css">
	.st0{fill:none;}
	.st1{font-family:'BlackOpsOne-Regular';}
	.st2{font-size:40px;}
	.st3{fill:url(#SVGID_1_);}
	.st4{fill:url(#SVGID_2_);}
	.st5{fill:url(#SVGID_3_);}
	.st6{fill:url(#SVGID_4_);}
	.st7{fill:url(#SVGID_5_);}
	.st8{fill:url(#SVGID_6_);}
	.st9{fill:url(#SVGID_7_);}
	.st10{fill:url(#SVGID_8_);}
	.st11{fill:url(#SVGID_9_);}
	.st12{fill:url(#SVGID_10_);}
	.st13{fill:url(#SVGID_11_);}
	.st14{fill:url(#SVGID_12_);}
	.st15{fill:url(#SVGID_13_);}
	.st16{fill:url(#SVGID_14_);}
	.st17{fill:url(#SVGID_15_);}
	.st18{fill:url(#SVGID_16_);}
	.st19{fill:url(#SVGID_17_);}
	.st20{fill:url(#SVGID_18_);}
	.st21{fill:url(#SVGID_19_);}
	.st22{fill:url(#SVGID_20_);}
	.st23{fill:url(#SVGID_21_);}
	.st24{fill:url(#SVGID_22_);}
	.st25{fill:url(#SVGID_23_);}
	.st26{fill:url(#SVGID_24_);}
	.st27{fill:url(#SVGID_25_);}
	.st28{fill:url(#SVGID_26_);}
	.st29{fill:url(#SVGID_27_);}
	.st30{fill:url(#SVGID_28_);}
	.st31{fill:url(#SVGID_29_);}
	.st32{fill:url(#SVGID_30_);}
	.st33{fill:url(#SVGID_31_);}
	.st34{fill:url(#SVGID_32_);}
	.st35{fill:url(#SVGID_33_);}
</style>
<g>
	<rect x="6" y="5.3" class="st0" width="351" height="39"/>
	<text transform="matrix(1 0 0 1 6 33.959)" class="st1 st2">MEET THE CREW</text>
	<g>
		<linearGradient id="SVGID_1_" gradientUnits="userSpaceOnUse" x1="177.387" y1="-2.5597" x2="177.387" y2="84.716">
			<stop  offset="0" style="stop-color:#666666"/>
			<stop  offset="1" style="stop-color:#1A1A1A"/>
		</linearGradient>
		<polygon class="st3" points="18.4,28.9 18.4,36 6.3,36 6.3,8.6 4.8,6 6.3,6 6.3,3.2 8,6 18.6,6 24.4,15.6 29.2,7.5 29.2,6 30,6 
			31.9,2.8 31.9,6 41.8,6 41.8,36 29.2,36 29.2,28.5 23.7,37.9 		"/>
		<linearGradient id="SVGID_2_" gradientUnits="userSpaceOnUse" x1="177.387" y1="-2.5597" x2="177.387" y2="84.716">
			<stop  offset="0" style="stop-color:#666666"/>
			<stop  offset="1" style="stop-color:#1A1A1A"/>
		</linearGradient>
		<path class="st4" d="M42.4,36V6h27.5v11.5h-6.6v6.6h6.6V36H42.4z M57.2,26.8v-1.5H55v1.5H57.2z M57.8,16.3v-1.3H55v1.3H57.8z"/>
		<linearGradient id="SVGID_3_" gradientUnits="userSpaceOnUse" x1="177.387" y1="-2.5597" x2="177.387" y2="84.716">
			<stop  offset="0" style="stop-color:#666666"/>
			<stop  offset="1" style="stop-color:#1A1A1A"/>
		</linearGradient>
		<path class="st5" d="M70,36V6h27.5v11.5h-6.6v6.6h6.6V36H70z M84.9,26.8v-1.5h-2.2v1.5H84.9z M85.4,16.3v-1.3h-2.7v1.3H85.4z"/>
		<linearGradient id="SVGID_4_" gradientUnits="userSpaceOnUse" x1="177.387" y1="-2.5597" x2="177.387" y2="84.716">
			<stop  offset="0" style="stop-color:#666666"/>
			<stop  offset="1" style="stop-color:#1A1A1A"/>
		</linearGradient>
		<polygon class="st6" points="103.1,36 103.1,15.7 96.4,15.7 96.4,6 122.9,6 122.9,15.7 116.1,15.7 116.1,36 		"/>
		<linearGradient id="SVGID_5_" gradientUnits="userSpaceOnUse" x1="177.387" y1="-2.5597" x2="177.387" y2="84.716">
			<stop  offset="0" style="stop-color:#666666"/>
			<stop  offset="1" style="stop-color:#1A1A1A"/>
		</linearGradient>
		<polygon class="st7" points="138,36 138,15.7 131.3,15.7 131.3,6 157.8,6 157.8,15.7 151,15.7 151,36 		"/>
		<linearGradient id="SVGID_6_" gradientUnits="userSpaceOnUse" x1="177.387" y1="-2.5597" x2="177.387" y2="84.716">
			<stop  offset="0" style="stop-color:#666666"/>
			<stop  offset="1" style="stop-color:#1A1A1A"/>
		</linearGradient>
		<polygon class="st8" points="173.5,36 173.5,25.4 169.7,25.4 169.7,36 157.1,36 157.1,6 169.7,6 169.7,16.2 173.4,16.2 173.4,6 
			186.1,6 186.1,36 		"/>
		<linearGradient id="SVGID_7_" gradientUnits="userSpaceOnUse" x1="177.387" y1="-2.5597" x2="177.387" y2="84.716">
			<stop  offset="0" style="stop-color:#666666"/>
			<stop  offset="1" style="stop-color:#1A1A1A"/>
		</linearGradient>
		<path class="st9" d="M186.7,36V6h27.5v11.5h-6.6v6.6h6.6V36H186.7z M201.5,26.8v-1.5h-2.2v1.5H201.5z M202,16.3v-1.3h-2.7v1.3H202
			z"/>
		<linearGradient id="SVGID_8_" gradientUnits="userSpaceOnUse" x1="177.387" y1="-2.5597" x2="177.387" y2="84.716">
			<stop  offset="0" style="stop-color:#666666"/>
			<stop  offset="1" style="stop-color:#1A1A1A"/>
		</linearGradient>
		<polygon class="st10" points="230.6,36 224.3,29.6 224.3,12.4 230.6,6 246.3,6 252.6,12.4 252.6,20.4 240,20.4 240,15.2 
			236.9,15.2 236.9,26.8 240,26.8 240,23 252.6,23 252.6,29.6 246.3,36 		"/>
		<linearGradient id="SVGID_9_" gradientUnits="userSpaceOnUse" x1="177.387" y1="-2.5597" x2="177.387" y2="84.716">
			<stop  offset="0" style="stop-color:#666666"/>
			<stop  offset="1" style="stop-color:#1A1A1A"/>
		</linearGradient>
		<path class="st11" d="M270.2,36l-3.7-7.8h-1.1V36h-12.6V6h22.7l6.4,6.3v9.4l-3.5,3.5l5.8,10.6H270.2z M269.3,19.2v-3.9h-3.9v3.9
			H269.3z"/>
		<linearGradient id="SVGID_10_" gradientUnits="userSpaceOnUse" x1="177.387" y1="-2.5597" x2="177.387" y2="84.716">
			<stop  offset="0" style="stop-color:#666666"/>
			<stop  offset="1" style="stop-color:#1A1A1A"/>
		</linearGradient>
		<path class="st12" d="M281.8,36V6h27.5v11.5h-6.6v6.6h6.6V36H281.8z M296.7,26.8v-1.5h-2.2v1.5H296.7z M297.2,16.3v-1.3h-2.7v1.3
			H297.2z"/>
		<linearGradient id="SVGID_11_" gradientUnits="userSpaceOnUse" x1="177.387" y1="-2.5597" x2="177.387" y2="84.716">
			<stop  offset="0" style="stop-color:#666666"/>
			<stop  offset="1" style="stop-color:#1A1A1A"/>
		</linearGradient>
		<polygon class="st13" points="339.1,36 329.6,36 327.7,28.9 325.8,36 314.9,36 306,6 318.8,6 320.9,14.1 321.7,10.9 322.7,10.9 
			321.4,6 334.3,6 336.1,13.2 337.9,6 350,6 341.7,35 342,36 341.4,36 340.2,40.3 		"/>
	</g>
	<g>
		<linearGradient id="SVGID_12_" gradientUnits="userSpaceOnUse" x1="177.6016" y1="2.2147" x2="177.6016" y2="71.9547">
			<stop  offset="0" style="stop-color:#1A1A1A"/>
			<stop  offset="1" style="stop-color:#1A1A1A"/>
		</linearGradient>
		<polygon class="st14" points="17.4,25.3 17.4,35 7.3,35 7.3,8.3 6.5,7 7.3,7 7.3,6.8 7.4,7 18,7 24.4,17.6 30.2,7.7 30.2,7 
			30.6,7 30.9,6.5 30.9,7 40.8,7 40.8,35 30.2,35 30.2,24.8 23.7,35.9 		"/>
		<linearGradient id="SVGID_13_" gradientUnits="userSpaceOnUse" x1="177.6016" y1="2.2147" x2="177.6016" y2="71.9547">
			<stop  offset="0" style="stop-color:#1A1A1A"/>
			<stop  offset="1" style="stop-color:#1A1A1A"/>
		</linearGradient>
		<polygon class="st15" points="43.4,35 43.4,7 68.9,7 68.9,16.5 58.8,16.5 58.8,14.1 54,14.1 54,17.3 62.3,17.3 62.3,24.3 54,24.3 
			54,27.8 58.2,27.8 58.2,25.2 68.9,25.2 68.9,35 		"/>
		<linearGradient id="SVGID_14_" gradientUnits="userSpaceOnUse" x1="177.6016" y1="2.2147" x2="177.6016" y2="71.9547">
			<stop  offset="0" style="stop-color:#1A1A1A"/>
			<stop  offset="1" style="stop-color:#1A1A1A"/>
		</linearGradient>
		<polygon class="st16" points="71,35 71,7 96.5,7 96.5,16.5 86.4,16.5 86.4,14.1 81.6,14.1 81.6,17.3 89.9,17.3 89.9,24.3 
			81.6,24.3 81.6,27.8 85.9,27.8 85.9,25.2 96.5,25.2 96.5,35 		"/>
		<linearGradient id="SVGID_15_" gradientUnits="userSpaceOnUse" x1="177.6016" y1="2.2147" x2="177.6016" y2="71.9547">
			<stop  offset="0" style="stop-color:#1A1A1A"/>
			<stop  offset="1" style="stop-color:#1A1A1A"/>
		</linearGradient>
		<polygon class="st17" points="104.1,35 104.1,14.7 97.4,14.7 97.4,7 121.9,7 121.9,14.7 115.1,14.7 115.1,35 		"/>
		<linearGradient id="SVGID_16_" gradientUnits="userSpaceOnUse" x1="177.6016" y1="2.2147" x2="177.6016" y2="71.9547">
			<stop  offset="0" style="stop-color:#1A1A1A"/>
			<stop  offset="1" style="stop-color:#1A1A1A"/>
		</linearGradient>
		<polygon class="st18" points="139,35 139,14.7 132.3,14.7 132.3,7 156.8,7 156.8,14.7 150,14.7 150,35 		"/>
		<linearGradient id="SVGID_17_" gradientUnits="userSpaceOnUse" x1="177.6016" y1="2.2147" x2="177.6016" y2="71.9547">
			<stop  offset="0" style="stop-color:#1A1A1A"/>
			<stop  offset="1" style="stop-color:#1A1A1A"/>
		</linearGradient>
		<polygon class="st19" points="174.5,35 174.5,24.4 168.7,24.4 168.7,35 158.1,35 158.1,7 168.7,7 168.7,17.2 174.4,17.2 174.4,7 
			185.1,7 185.1,35 		"/>
		<linearGradient id="SVGID_18_" gradientUnits="userSpaceOnUse" x1="177.6016" y1="2.2147" x2="177.6016" y2="71.9547">
			<stop  offset="0" style="stop-color:#1A1A1A"/>
			<stop  offset="1" style="stop-color:#1A1A1A"/>
		</linearGradient>
		<polygon class="st20" points="187.7,35 187.7,7 213.2,7 213.2,16.5 203,16.5 203,14.1 198.3,14.1 198.3,17.3 206.6,17.3 
			206.6,24.3 198.3,24.3 198.3,27.8 202.5,27.8 202.5,25.2 213.2,25.2 213.2,35 		"/>
		<linearGradient id="SVGID_19_" gradientUnits="userSpaceOnUse" x1="177.6016" y1="2.2147" x2="177.6016" y2="71.9547">
			<stop  offset="0" style="stop-color:#1A1A1A"/>
			<stop  offset="1" style="stop-color:#1A1A1A"/>
		</linearGradient>
		<polygon class="st21" points="231.1,35 225.3,29.2 225.3,12.8 231.1,7 245.9,7 251.6,12.8 251.6,19.4 241,19.4 241,14.2 
			235.9,14.2 235.9,27.8 241,27.8 241,24 251.6,24 251.6,29.2 245.9,35 		"/>
		<linearGradient id="SVGID_20_" gradientUnits="userSpaceOnUse" x1="177.6016" y1="2.2147" x2="177.6016" y2="71.9547">
			<stop  offset="0" style="stop-color:#1A1A1A"/>
			<stop  offset="1" style="stop-color:#1A1A1A"/>
		</linearGradient>
		<path class="st22" d="M270.9,35l-3.7-7.8h-2.7V35h-10.6V7h21.3l5.8,5.8v8.6l-3.8,3.8l5.3,9.8H270.9z M270.3,20.2v-5.9h-5.9v5.9
			H270.3z"/>
		<linearGradient id="SVGID_21_" gradientUnits="userSpaceOnUse" x1="177.6016" y1="2.2147" x2="177.6016" y2="71.9547">
			<stop  offset="0" style="stop-color:#1A1A1A"/>
			<stop  offset="1" style="stop-color:#1A1A1A"/>
		</linearGradient>
		<polygon class="st23" points="282.8,35 282.8,7 308.3,7 308.3,16.5 298.2,16.5 298.2,14.1 293.4,14.1 293.4,17.3 301.7,17.3 
			301.7,24.3 293.4,24.3 293.4,27.8 297.7,27.8 297.7,25.2 308.3,25.2 308.3,35 		"/>
		<linearGradient id="SVGID_22_" gradientUnits="userSpaceOnUse" x1="177.6016" y1="2.2147" x2="177.6016" y2="71.9547">
			<stop  offset="0" style="stop-color:#1A1A1A"/>
			<stop  offset="1" style="stop-color:#1A1A1A"/>
		</linearGradient>
		<polygon class="st24" points="339.9,35 330.4,35 327.7,25.1 325,35 315.7,35 307.3,7 318,7 321,18.2 322.7,11.2 323.8,11.1 
			322.7,7 333.5,7 336.1,17.3 338.7,7 348.7,7 340.2,36.4 		"/>
	</g>
	<g>
		<linearGradient id="SVGID_23_" gradientUnits="userSpaceOnUse" x1="177.8066" y1="4.3409" x2="177.8066" y2="64.6879">
			<stop  offset="0" style="stop-color:#4D4D4D"/>
			<stop  offset="0.299" style="stop-color:#C3C3C3"/>
			<stop  offset="0.3142" style="stop-color:#ADADAD"/>
			<stop  offset="0.3437" style="stop-color:#888888"/>
			<stop  offset="0.3747" style="stop-color:#696969"/>
			<stop  offset="0.407" style="stop-color:#515151"/>
			<stop  offset="0.4412" style="stop-color:#404040"/>
			<stop  offset="0.4786" style="stop-color:#363636"/>
			<stop  offset="0.5251" style="stop-color:#333333"/>
			<stop  offset="1" style="stop-color:#666666"/>
		</linearGradient>
		<path class="st25" d="M8.3,34V10.4L16.4,24v10H8.3z M8.3,8h9.2l7,11.5l5.5-9.4v13L23.7,34L8.3,8z M31.2,34V8h8.6V34H31.2z"/>
		<linearGradient id="SVGID_24_" gradientUnits="userSpaceOnUse" x1="177.8066" y1="4.3409" x2="177.8066" y2="64.6879">
			<stop  offset="0" style="stop-color:#4D4D4D"/>
			<stop  offset="0.299" style="stop-color:#C3C3C3"/>
			<stop  offset="0.3142" style="stop-color:#ADADAD"/>
			<stop  offset="0.3437" style="stop-color:#888888"/>
			<stop  offset="0.3747" style="stop-color:#696969"/>
			<stop  offset="0.407" style="stop-color:#515151"/>
			<stop  offset="0.4412" style="stop-color:#404040"/>
			<stop  offset="0.4786" style="stop-color:#363636"/>
			<stop  offset="0.5251" style="stop-color:#333333"/>
			<stop  offset="1" style="stop-color:#666666"/>
		</linearGradient>
		<path class="st26" d="M53,23.3V34h-8.6V8H53v10.3h8.3v5H53z M54.4,13.1V8h13.5v7.5h-8.1v-2.5H54.4z M54.4,34v-5.2h4.9v-2.6h8.6V34
			H54.4z"/>
		<linearGradient id="SVGID_25_" gradientUnits="userSpaceOnUse" x1="177.8066" y1="4.3409" x2="177.8066" y2="64.6879">
			<stop  offset="0" style="stop-color:#4D4D4D"/>
			<stop  offset="0.299" style="stop-color:#C3C3C3"/>
			<stop  offset="0.3142" style="stop-color:#ADADAD"/>
			<stop  offset="0.3437" style="stop-color:#888888"/>
			<stop  offset="0.3747" style="stop-color:#696969"/>
			<stop  offset="0.407" style="stop-color:#515151"/>
			<stop  offset="0.4412" style="stop-color:#404040"/>
			<stop  offset="0.4786" style="stop-color:#363636"/>
			<stop  offset="0.5251" style="stop-color:#333333"/>
			<stop  offset="1" style="stop-color:#666666"/>
		</linearGradient>
		<path class="st27" d="M80.6,23.3V34H72V8h8.6v10.3h8.3v5H80.6z M82,13.1V8h13.5v7.5h-8.1v-2.5H82z M82,34v-5.2h4.9v-2.6h8.6V34H82
			z"/>
		<linearGradient id="SVGID_26_" gradientUnits="userSpaceOnUse" x1="177.8066" y1="4.3409" x2="177.8066" y2="64.6879">
			<stop  offset="0" style="stop-color:#4D4D4D"/>
			<stop  offset="0.299" style="stop-color:#C3C3C3"/>
			<stop  offset="0.3142" style="stop-color:#ADADAD"/>
			<stop  offset="0.3437" style="stop-color:#888888"/>
			<stop  offset="0.3747" style="stop-color:#696969"/>
			<stop  offset="0.407" style="stop-color:#515151"/>
			<stop  offset="0.4412" style="stop-color:#404040"/>
			<stop  offset="0.4786" style="stop-color:#363636"/>
			<stop  offset="0.5251" style="stop-color:#333333"/>
			<stop  offset="1" style="stop-color:#666666"/>
		</linearGradient>
		<path class="st28" d="M98.4,8h22.5v5.6H98.4V8z M105.1,15h9V34h-9V15z"/>
		<linearGradient id="SVGID_27_" gradientUnits="userSpaceOnUse" x1="177.8066" y1="4.3409" x2="177.8066" y2="64.6879">
			<stop  offset="0" style="stop-color:#4D4D4D"/>
			<stop  offset="0.299" style="stop-color:#C3C3C3"/>
			<stop  offset="0.3142" style="stop-color:#ADADAD"/>
			<stop  offset="0.3437" style="stop-color:#888888"/>
			<stop  offset="0.3747" style="stop-color:#696969"/>
			<stop  offset="0.407" style="stop-color:#515151"/>
			<stop  offset="0.4412" style="stop-color:#404040"/>
			<stop  offset="0.4786" style="stop-color:#363636"/>
			<stop  offset="0.5251" style="stop-color:#333333"/>
			<stop  offset="1" style="stop-color:#666666"/>
		</linearGradient>
		<path class="st29" d="M133.3,8h22.5v5.6h-22.5V8z M140,15h9V34h-9V15z"/>
		<linearGradient id="SVGID_28_" gradientUnits="userSpaceOnUse" x1="177.8066" y1="4.3409" x2="177.8066" y2="64.6879">
			<stop  offset="0" style="stop-color:#4D4D4D"/>
			<stop  offset="0.299" style="stop-color:#C3C3C3"/>
			<stop  offset="0.3142" style="stop-color:#ADADAD"/>
			<stop  offset="0.3437" style="stop-color:#888888"/>
			<stop  offset="0.3747" style="stop-color:#696969"/>
			<stop  offset="0.407" style="stop-color:#515151"/>
			<stop  offset="0.4412" style="stop-color:#404040"/>
			<stop  offset="0.4786" style="stop-color:#363636"/>
			<stop  offset="0.5251" style="stop-color:#333333"/>
			<stop  offset="1" style="stop-color:#666666"/>
		</linearGradient>
		<path class="st30" d="M167.7,34h-8.6V8h8.6V34z M175.4,8h8.7V34h-8.7V23.4h-6.4v-5.2h6.3V8z"/>
		<linearGradient id="SVGID_29_" gradientUnits="userSpaceOnUse" x1="177.8066" y1="4.3409" x2="177.8066" y2="64.6879">
			<stop  offset="0" style="stop-color:#4D4D4D"/>
			<stop  offset="0.299" style="stop-color:#C3C3C3"/>
			<stop  offset="0.3142" style="stop-color:#ADADAD"/>
			<stop  offset="0.3437" style="stop-color:#888888"/>
			<stop  offset="0.3747" style="stop-color:#696969"/>
			<stop  offset="0.407" style="stop-color:#515151"/>
			<stop  offset="0.4412" style="stop-color:#404040"/>
			<stop  offset="0.4786" style="stop-color:#363636"/>
			<stop  offset="0.5251" style="stop-color:#333333"/>
			<stop  offset="1" style="stop-color:#666666"/>
		</linearGradient>
		<path class="st31" d="M197.3,23.3V34h-8.6V8h8.6v10.3h8.3v5H197.3z M198.7,13.1V8h13.5v7.5H204v-2.5H198.7z M198.7,34v-5.2h4.9
			v-2.6h8.6V34H198.7z"/>
		<linearGradient id="SVGID_30_" gradientUnits="userSpaceOnUse" x1="177.8066" y1="4.3409" x2="177.8066" y2="64.6879">
			<stop  offset="0" style="stop-color:#4D4D4D"/>
			<stop  offset="0.299" style="stop-color:#C3C3C3"/>
			<stop  offset="0.3142" style="stop-color:#ADADAD"/>
			<stop  offset="0.3437" style="stop-color:#888888"/>
			<stop  offset="0.3747" style="stop-color:#696969"/>
			<stop  offset="0.407" style="stop-color:#515151"/>
			<stop  offset="0.4412" style="stop-color:#404040"/>
			<stop  offset="0.4786" style="stop-color:#363636"/>
			<stop  offset="0.5251" style="stop-color:#333333"/>
			<stop  offset="1" style="stop-color:#666666"/>
		</linearGradient>
		<path class="st32" d="M234.9,34h-3.4l-5.2-5.2V13.2l5.2-5.2h3.4V34z M236.3,13.2V8h9.2l5.2,5.2v5.2H242v-5.2H236.3z M236.3,34
			v-5.2h5.7V25h8.6v3.8l-5.2,5.2H236.3z"/>
		<linearGradient id="SVGID_31_" gradientUnits="userSpaceOnUse" x1="177.8066" y1="4.3409" x2="177.8066" y2="64.6879">
			<stop  offset="0" style="stop-color:#4D4D4D"/>
			<stop  offset="0.299" style="stop-color:#C3C3C3"/>
			<stop  offset="0.3142" style="stop-color:#ADADAD"/>
			<stop  offset="0.3437" style="stop-color:#888888"/>
			<stop  offset="0.3747" style="stop-color:#696969"/>
			<stop  offset="0.407" style="stop-color:#515151"/>
			<stop  offset="0.4412" style="stop-color:#404040"/>
			<stop  offset="0.4786" style="stop-color:#363636"/>
			<stop  offset="0.5251" style="stop-color:#333333"/>
			<stop  offset="1" style="stop-color:#666666"/>
		</linearGradient>
		<path class="st33" d="M254.8,34V8h8.6V34H254.8z M264.8,13.2V8h9.9l5.2,5.2V21l-4,4l-0.3-0.5l-8.1,1.1l0.3,0.7h-3v-5h6.5v-7.9
			H264.8z M280.7,34h-9.2l-3.7-7.8h6.9l1.2-1.2L280.7,34z"/>
		<linearGradient id="SVGID_32_" gradientUnits="userSpaceOnUse" x1="177.8066" y1="4.3409" x2="177.8066" y2="64.6879">
			<stop  offset="0" style="stop-color:#4D4D4D"/>
			<stop  offset="0.299" style="stop-color:#C3C3C3"/>
			<stop  offset="0.3142" style="stop-color:#ADADAD"/>
			<stop  offset="0.3437" style="stop-color:#888888"/>
			<stop  offset="0.3747" style="stop-color:#696969"/>
			<stop  offset="0.407" style="stop-color:#515151"/>
			<stop  offset="0.4412" style="stop-color:#404040"/>
			<stop  offset="0.4786" style="stop-color:#363636"/>
			<stop  offset="0.5251" style="stop-color:#333333"/>
			<stop  offset="1" style="stop-color:#666666"/>
		</linearGradient>
		<path class="st34" d="M292.4,23.3V34h-8.6V8h8.6v10.3h8.3v5H292.4z M293.8,13.1V8h13.5v7.5h-8.1v-2.5H293.8z M293.8,34v-5.2h4.9
			v-2.6h8.6V34H293.8z"/>
		<linearGradient id="SVGID_33_" gradientUnits="userSpaceOnUse" x1="177.8066" y1="4.3409" x2="177.8066" y2="64.6879">
			<stop  offset="0" style="stop-color:#4D4D4D"/>
			<stop  offset="0.299" style="stop-color:#C3C3C3"/>
			<stop  offset="0.3142" style="stop-color:#ADADAD"/>
			<stop  offset="0.3437" style="stop-color:#888888"/>
			<stop  offset="0.3747" style="stop-color:#696969"/>
			<stop  offset="0.407" style="stop-color:#515151"/>
			<stop  offset="0.4412" style="stop-color:#404040"/>
			<stop  offset="0.4786" style="stop-color:#363636"/>
			<stop  offset="0.5251" style="stop-color:#333333"/>
			<stop  offset="1" style="stop-color:#666666"/>
		</linearGradient>
		<path class="st35" d="M321.1,22.3l2.6-10.9l3.4,12.3L324.2,34h-7.8L308.7,8h8.6L321.1,22.3z M339.4,34h-8.2L324,8h8.7L339.4,34z
			 M339.5,8h7.9l-7,24.6l-3.5-13.8L339.5,8z"/>
	</g>
</g>
</svg>
