<?xml version="1.0" encoding="utf-8"?>
<!-- Generator: Adobe Illustrator 22.0.1, SVG Export Plug-In . SVG Version: 6.00 Build 0)  -->
<svg version="1.1" id="Layer_1" xmlns="http://www.w3.org/2000/svg" xmlns:xlink="http://www.w3.org/1999/xlink" x="0px" y="0px"
	 viewBox="0 0 198.3 49.5" style="enable-background:new 0 0 198.3 49.5;" xml:space="preserve">
<style type="text/css">
	.st0{fill:none;}
	.st1{font-family:'BlackOpsOne-Regular';}
	.st2{font-size:40px;}
	.st3{fill:url(#SVGID_1_);}
	.st4{fill:url(#SVGID_2_);}
	.st5{fill:url(#SVGID_3_);}
	.st6{fill:url(#SVGID_4_);}
	.st7{fill:url(#SVGID_5_);}
	.st8{fill:url(#SVGID_6_);}
	.st9{fill:url(#SVGID_7_);}
	.st10{fill:url(#SVGID_8_);}
	.st11{fill:url(#SVGID_9_);}
	.st12{fill:url(#SVGID_10_);}
	.st13{fill:url(#SVGID_11_);}
	.st14{fill:url(#SVGID_12_);}
	.st15{fill:url(#SVGID_13_);}
	.st16{fill:url(#SVGID_14_);}
	.st17{fill:url(#SVGID_15_);}
	.st18{fill:url(#SVGID_16_);}
	.st19{fill:url(#SVGID_17_);}
	.st20{fill:url(#SVGID_18_);}
	.st21{fill:url(#SVGID_19_);}
	.st22{fill:url(#SVGID_20_);}
	.st23{fill:url(#SVGID_21_);}
</style>
<g>
	<rect x="6" y="5.3" class="st0" width="190" height="39"/>
	<text transform="matrix(1 0 0 1 6 33.959)" class="st1 st2">TRAILER</text>
	<g>
		<linearGradient id="SVGID_1_" gradientUnits="userSpaceOnUse" x1="97.7234" y1="-1.1451" x2="97.7234" y2="74.4546">
			<stop  offset="0" style="stop-color:#666666"/>
			<stop  offset="1" style="stop-color:#1A1A1A"/>
		</linearGradient>
		<polygon class="st3" points="11.8,36 11.8,15.7 5,15.7 5,6 31.5,6 31.5,15.7 24.8,15.7 24.8,36 		"/>
		<linearGradient id="SVGID_2_" gradientUnits="userSpaceOnUse" x1="97.7234" y1="-1.1451" x2="97.7234" y2="74.4546">
			<stop  offset="0" style="stop-color:#666666"/>
			<stop  offset="1" style="stop-color:#1A1A1A"/>
		</linearGradient>
		<path class="st4" d="M48.3,36l-3.7-7.8h-1.1V36H30.8V6h22.7l6.4,6.3v9.4l-3.5,3.5L62.1,36H48.3z M47.3,19.2v-3.9h-3.9v3.9H47.3z"
			/>
		<linearGradient id="SVGID_3_" gradientUnits="userSpaceOnUse" x1="97.7234" y1="-1.1451" x2="97.7234" y2="74.4546">
			<stop  offset="0" style="stop-color:#666666"/>
			<stop  offset="1" style="stop-color:#1A1A1A"/>
		</linearGradient>
		<path class="st5" d="M78.6,36l-1.1-2.8h-7L69.5,36H56.8L67.5,7.4L67,6h1l1-2.6L69.9,6h9.8L91.6,36H78.6z M73.9,24l-0.3-0.7
			L73.4,24H73.9z"/>
		<linearGradient id="SVGID_4_" gradientUnits="userSpaceOnUse" x1="97.7234" y1="-1.1451" x2="97.7234" y2="74.4546">
			<stop  offset="0" style="stop-color:#666666"/>
			<stop  offset="1" style="stop-color:#1A1A1A"/>
		</linearGradient>
		<polygon class="st6" points="88.7,36 88.7,26.4 91.3,26.4 91.3,15.5 88.7,15.5 88.7,6 106.6,6 106.6,15.5 104,15.5 104,26.4 
			106.6,26.4 106.6,36 		"/>
		<linearGradient id="SVGID_5_" gradientUnits="userSpaceOnUse" x1="97.7234" y1="-1.1451" x2="97.7234" y2="74.4546">
			<stop  offset="0" style="stop-color:#666666"/>
			<stop  offset="1" style="stop-color:#1A1A1A"/>
		</linearGradient>
		<polygon class="st7" points="106.8,36 106.8,6 119.4,6 119.4,26.8 121,26.8 121,23.5 132.9,23.5 132.9,36 		"/>
		<linearGradient id="SVGID_6_" gradientUnits="userSpaceOnUse" x1="97.7234" y1="-1.1451" x2="97.7234" y2="74.4546">
			<stop  offset="0" style="stop-color:#666666"/>
			<stop  offset="1" style="stop-color:#1A1A1A"/>
		</linearGradient>
		<path class="st8" d="M131.5,36V6H159v11.5h-6.6v6.6h6.6V36H131.5z M146.4,26.8v-1.5h-2.2v1.5H146.4z M146.9,16.3v-1.3h-2.7v1.3
			H146.9z"/>
		<linearGradient id="SVGID_7_" gradientUnits="userSpaceOnUse" x1="97.7234" y1="-1.1451" x2="97.7234" y2="74.4546">
			<stop  offset="0" style="stop-color:#666666"/>
			<stop  offset="1" style="stop-color:#1A1A1A"/>
		</linearGradient>
		<path class="st9" d="M176.6,36l-3.7-7.8h-1.1V36h-12.6V6h22.7l6.4,6.3v9.4l-3.5,3.5l5.8,10.6H176.6z M175.6,19.2v-3.9h-3.9v3.9
			H175.6z"/>
	</g>
	<g>
		<linearGradient id="SVGID_8_" gradientUnits="userSpaceOnUse" x1="97.384" y1="2.2675" x2="97.384" y2="68.8765">
			<stop  offset="0" style="stop-color:#1A1A1A"/>
			<stop  offset="1" style="stop-color:#1A1A1A"/>
		</linearGradient>
		<polygon class="st10" points="12.8,35 12.8,14.7 6,14.7 6,7 30.5,7 30.5,14.7 23.8,14.7 23.8,35 		"/>
		<linearGradient id="SVGID_9_" gradientUnits="userSpaceOnUse" x1="97.384" y1="2.2675" x2="97.384" y2="68.8765">
			<stop  offset="0" style="stop-color:#1A1A1A"/>
			<stop  offset="1" style="stop-color:#1A1A1A"/>
		</linearGradient>
		<path class="st11" d="M48.9,35l-3.7-7.8h-2.7V35H31.8V7h21.3l5.8,5.8v8.6l-3.8,3.8l5.3,9.8H48.9z M48.3,20.2v-5.9h-5.9v5.9H48.3z"
			/>
		<linearGradient id="SVGID_10_" gradientUnits="userSpaceOnUse" x1="97.384" y1="2.2675" x2="97.384" y2="68.8765">
			<stop  offset="0" style="stop-color:#1A1A1A"/>
			<stop  offset="1" style="stop-color:#1A1A1A"/>
		</linearGradient>
		<path class="st12" d="M79.3,35l-1.1-2.8h-8.4L68.8,35H58.3L68.6,7.4L68.5,7h0.3L69,6.4L69.2,7H79L90.2,35H79.3z M75.4,25l-1.8-4.7
			L72.1,25H75.4z"/>
		<linearGradient id="SVGID_11_" gradientUnits="userSpaceOnUse" x1="97.384" y1="2.2675" x2="97.384" y2="68.8765">
			<stop  offset="0" style="stop-color:#1A1A1A"/>
			<stop  offset="1" style="stop-color:#1A1A1A"/>
		</linearGradient>
		<polygon class="st13" points="89.7,35 89.7,27.4 92.3,27.4 92.3,14.5 89.7,14.5 89.7,7 105.6,7 105.6,14.5 103,14.5 103,27.4 
			105.6,27.4 105.6,35 		"/>
		<linearGradient id="SVGID_12_" gradientUnits="userSpaceOnUse" x1="97.384" y1="2.2675" x2="97.384" y2="68.8765">
			<stop  offset="0" style="stop-color:#1A1A1A"/>
			<stop  offset="1" style="stop-color:#1A1A1A"/>
		</linearGradient>
		<polygon class="st14" points="107.8,35 107.8,7 118.4,7 118.4,27.8 122,27.8 122,24.5 131.9,24.5 131.9,35 		"/>
		<linearGradient id="SVGID_13_" gradientUnits="userSpaceOnUse" x1="97.384" y1="2.2675" x2="97.384" y2="68.8765">
			<stop  offset="0" style="stop-color:#1A1A1A"/>
			<stop  offset="1" style="stop-color:#1A1A1A"/>
		</linearGradient>
		<polygon class="st15" points="132.5,35 132.5,7 158,7 158,16.5 147.9,16.5 147.9,14.1 143.1,14.1 143.1,17.3 151.4,17.3 
			151.4,24.3 143.1,24.3 143.1,27.8 147.4,27.8 147.4,25.2 158,25.2 158,35 		"/>
		<linearGradient id="SVGID_14_" gradientUnits="userSpaceOnUse" x1="97.384" y1="2.2675" x2="97.384" y2="68.8765">
			<stop  offset="0" style="stop-color:#1A1A1A"/>
			<stop  offset="1" style="stop-color:#1A1A1A"/>
		</linearGradient>
		<path class="st16" d="M177.2,35l-3.7-7.8h-2.7V35h-10.6V7h21.3l5.8,5.8v8.6l-3.8,3.8l5.3,9.8H177.2z M176.6,20.2v-5.9h-5.9v5.9
			H176.6z"/>
	</g>
	<g>
		<linearGradient id="SVGID_15_" gradientUnits="userSpaceOnUse" x1="97.0449" y1="4.3409" x2="97.0449" y2="64.6879">
			<stop  offset="0" style="stop-color:#4D4D4D"/>
			<stop  offset="0.299" style="stop-color:#C3C3C3"/>
			<stop  offset="0.3142" style="stop-color:#ADADAD"/>
			<stop  offset="0.3437" style="stop-color:#888888"/>
			<stop  offset="0.3747" style="stop-color:#696969"/>
			<stop  offset="0.407" style="stop-color:#515151"/>
			<stop  offset="0.4412" style="stop-color:#404040"/>
			<stop  offset="0.4786" style="stop-color:#363636"/>
			<stop  offset="0.5251" style="stop-color:#333333"/>
			<stop  offset="1" style="stop-color:#666666"/>
		</linearGradient>
		<path class="st17" d="M7,8h22.5v5.6H7V8z M13.8,15h9V34h-9V15z"/>
		<linearGradient id="SVGID_16_" gradientUnits="userSpaceOnUse" x1="97.0449" y1="4.3409" x2="97.0449" y2="64.6879">
			<stop  offset="0" style="stop-color:#4D4D4D"/>
			<stop  offset="0.299" style="stop-color:#C3C3C3"/>
			<stop  offset="0.3142" style="stop-color:#ADADAD"/>
			<stop  offset="0.3437" style="stop-color:#888888"/>
			<stop  offset="0.3747" style="stop-color:#696969"/>
			<stop  offset="0.407" style="stop-color:#515151"/>
			<stop  offset="0.4412" style="stop-color:#404040"/>
			<stop  offset="0.4786" style="stop-color:#363636"/>
			<stop  offset="0.5251" style="stop-color:#333333"/>
			<stop  offset="1" style="stop-color:#666666"/>
		</linearGradient>
		<path class="st18" d="M32.8,34V8h8.6V34H32.8z M42.8,13.2V8h9.9l5.2,5.2V21l-4,4l-0.3-0.5l-8.1,1.1l0.3,0.7h-3v-5h6.5v-7.9H42.8z
			 M58.8,34h-9.2l-3.7-7.8h6.9l1.2-1.2L58.8,34z"/>
		<linearGradient id="SVGID_17_" gradientUnits="userSpaceOnUse" x1="97.0449" y1="4.3409" x2="97.0449" y2="64.6879">
			<stop  offset="0" style="stop-color:#4D4D4D"/>
			<stop  offset="0.299" style="stop-color:#C3C3C3"/>
			<stop  offset="0.3142" style="stop-color:#ADADAD"/>
			<stop  offset="0.3437" style="stop-color:#888888"/>
			<stop  offset="0.3747" style="stop-color:#696969"/>
			<stop  offset="0.407" style="stop-color:#515151"/>
			<stop  offset="0.4412" style="stop-color:#404040"/>
			<stop  offset="0.4786" style="stop-color:#363636"/>
			<stop  offset="0.5251" style="stop-color:#333333"/>
			<stop  offset="1" style="stop-color:#666666"/>
		</linearGradient>
		<path class="st19" d="M68.1,34h-8.3L69,9.2l3.8,10.3L68.1,34z M78.9,31.1h-8.5l1.8-5.1h4.7L69.9,8h8.4L88.7,34h-8.7L78.9,31.1z"/>
		<linearGradient id="SVGID_18_" gradientUnits="userSpaceOnUse" x1="97.0449" y1="4.3409" x2="97.0449" y2="64.6879">
			<stop  offset="0" style="stop-color:#4D4D4D"/>
			<stop  offset="0.299" style="stop-color:#C3C3C3"/>
			<stop  offset="0.3142" style="stop-color:#ADADAD"/>
			<stop  offset="0.3437" style="stop-color:#888888"/>
			<stop  offset="0.3747" style="stop-color:#696969"/>
			<stop  offset="0.407" style="stop-color:#515151"/>
			<stop  offset="0.4412" style="stop-color:#404040"/>
			<stop  offset="0.4786" style="stop-color:#363636"/>
			<stop  offset="0.5251" style="stop-color:#333333"/>
			<stop  offset="1" style="stop-color:#666666"/>
		</linearGradient>
		<path class="st20" d="M90.7,28.4h2.6V13.5h-2.6V8h13.8v5.5H102v14.9h2.6V34H90.7V28.4z"/>
		<linearGradient id="SVGID_19_" gradientUnits="userSpaceOnUse" x1="97.0449" y1="4.3409" x2="97.0449" y2="64.6879">
			<stop  offset="0" style="stop-color:#4D4D4D"/>
			<stop  offset="0.299" style="stop-color:#C3C3C3"/>
			<stop  offset="0.3142" style="stop-color:#ADADAD"/>
			<stop  offset="0.3437" style="stop-color:#888888"/>
			<stop  offset="0.3747" style="stop-color:#696969"/>
			<stop  offset="0.407" style="stop-color:#515151"/>
			<stop  offset="0.4412" style="stop-color:#404040"/>
			<stop  offset="0.4786" style="stop-color:#363636"/>
			<stop  offset="0.5251" style="stop-color:#333333"/>
			<stop  offset="1" style="stop-color:#666666"/>
		</linearGradient>
		<path class="st21" d="M108.8,34V8h8.6V34H108.8z M118.8,34v-5.2h4.3v-3.3h7.8V34H118.8z"/>
		<linearGradient id="SVGID_20_" gradientUnits="userSpaceOnUse" x1="97.0449" y1="4.3409" x2="97.0449" y2="64.6879">
			<stop  offset="0" style="stop-color:#4D4D4D"/>
			<stop  offset="0.299" style="stop-color:#C3C3C3"/>
			<stop  offset="0.3142" style="stop-color:#ADADAD"/>
			<stop  offset="0.3437" style="stop-color:#888888"/>
			<stop  offset="0.3747" style="stop-color:#696969"/>
			<stop  offset="0.407" style="stop-color:#515151"/>
			<stop  offset="0.4412" style="stop-color:#404040"/>
			<stop  offset="0.4786" style="stop-color:#363636"/>
			<stop  offset="0.5251" style="stop-color:#333333"/>
			<stop  offset="1" style="stop-color:#666666"/>
		</linearGradient>
		<path class="st22" d="M142.1,23.3V34h-8.6V8h8.6v10.3h8.3v5H142.1z M143.5,13.1V8H157v7.5h-8.1v-2.5H143.5z M143.5,34v-5.2h4.9
			v-2.6h8.6V34H143.5z"/>
		<linearGradient id="SVGID_21_" gradientUnits="userSpaceOnUse" x1="97.0449" y1="4.3409" x2="97.0449" y2="64.6879">
			<stop  offset="0" style="stop-color:#4D4D4D"/>
			<stop  offset="0.299" style="stop-color:#C3C3C3"/>
			<stop  offset="0.3142" style="stop-color:#ADADAD"/>
			<stop  offset="0.3437" style="stop-color:#888888"/>
			<stop  offset="0.3747" style="stop-color:#696969"/>
			<stop  offset="0.407" style="stop-color:#515151"/>
			<stop  offset="0.4412" style="stop-color:#404040"/>
			<stop  offset="0.4786" style="stop-color:#363636"/>
			<stop  offset="0.5251" style="stop-color:#333333"/>
			<stop  offset="1" style="stop-color:#666666"/>
		</linearGradient>
		<path class="st23" d="M161.1,34V8h8.6V34H161.1z M171.1,13.2V8h9.9l5.2,5.2V21l-4,4l-0.3-0.5l-8.1,1.1l0.3,0.7h-3v-5h6.5v-7.9
			H171.1z M187.1,34h-9.2l-3.7-7.8h6.9l1.2-1.2L187.1,34z"/>
	</g>
</g>
</svg>
