<?xml version="1.0" encoding="utf-8"?>
<!-- Generator: Adobe Illustrator 22.0.1, SVG Export Plug-In . SVG Version: 6.00 Build 0)  -->
<svg version="1.1" id="Layer_1" xmlns="http://www.w3.org/2000/svg" xmlns:xlink="http://www.w3.org/1999/xlink" x="0px" y="0px"
	 viewBox="0 0 364.4 86.7" style="enable-background:new 0 0 364.4 86.7;" xml:space="preserve">
<style type="text/css">
	.st0{fill:none;}
	.st1{font-family:'BlackOpsOne-Regular';}
	.st2{font-size:40px;}
	.st3{fill:url(#SVGID_1_);}
	.st4{fill:url(#SVGID_2_);}
	.st5{fill:url(#SVGID_3_);}
	.st6{fill:url(#SVGID_4_);}
	.st7{fill:url(#SVGID_5_);}
	.st8{fill:url(#SVGID_6_);}
	.st9{fill:url(#SVGID_7_);}
	.st10{fill:url(#SVGID_8_);}
	.st11{fill:url(#SVGID_9_);}
	.st12{fill:url(#SVGID_10_);}
	.st13{fill:url(#SVGID_11_);}
	.st14{fill:url(#SVGID_12_);}
	.st15{fill:url(#SVGID_13_);}
	.st16{fill:url(#SVGID_14_);}
	.st17{fill:url(#SVGID_15_);}
	.st18{fill:url(#SVGID_16_);}
	.st19{fill:url(#SVGID_17_);}
	.st20{fill:url(#SVGID_18_);}
	.st21{fill:url(#SVGID_19_);}
	.st22{fill:url(#SVGID_20_);}
	.st23{fill:url(#SVGID_21_);}
	.st24{fill:url(#SVGID_22_);}
	.st25{fill:url(#SVGID_23_);}
	.st26{fill:url(#SVGID_24_);}
	.st27{fill:url(#SVGID_25_);}
	.st28{fill:url(#SVGID_26_);}
	.st29{fill:url(#SVGID_27_);}
	.st30{fill:url(#SVGID_28_);}
	.st31{fill:url(#SVGID_29_);}
	.st32{fill:url(#SVGID_30_);}
	.st33{fill:url(#SVGID_31_);}
	.st34{fill:url(#SVGID_32_);}
	.st35{fill:url(#SVGID_33_);}
	.st36{fill:url(#SVGID_34_);}
	.st37{fill:url(#SVGID_35_);}
	.st38{fill:url(#SVGID_36_);}
	.st39{fill:url(#SVGID_37_);}
	.st40{fill:url(#SVGID_38_);}
	.st41{fill:url(#SVGID_39_);}
	.st42{fill:url(#SVGID_40_);}
	.st43{fill:url(#SVGID_41_);}
	.st44{fill:url(#SVGID_42_);}
	.st45{fill:url(#SVGID_43_);}
	.st46{fill:url(#SVGID_44_);}
	.st47{fill:url(#SVGID_45_);}
	.st48{fill:url(#SVGID_46_);}
	.st49{fill:url(#SVGID_47_);}
	.st50{fill:url(#SVGID_48_);}
	.st51{fill:url(#SVGID_49_);}
	.st52{fill:url(#SVGID_50_);}
	.st53{fill:url(#SVGID_51_);}
	.st54{fill:url(#SVGID_52_);}
	.st55{fill:url(#SVGID_53_);}
	.st56{fill:url(#SVGID_54_);}
	.st57{fill:url(#SVGID_55_);}
	.st58{fill:url(#SVGID_56_);}
	.st59{fill:url(#SVGID_57_);}
	.st60{fill:url(#SVGID_58_);}
	.st61{fill:url(#SVGID_59_);}
	.st62{fill:url(#SVGID_60_);}
	.st63{fill:url(#SVGID_61_);}
	.st64{fill:url(#SVGID_62_);}
	.st65{fill:url(#SVGID_63_);}
	.st66{fill:url(#SVGID_64_);}
	.st67{fill:url(#SVGID_65_);}
	.st68{fill:url(#SVGID_66_);}
	.st69{fill:url(#SVGID_67_);}
	.st70{fill:url(#SVGID_68_);}
	.st71{fill:url(#SVGID_69_);}
</style>
<g>
	<rect x="6" y="5.3" class="st0" width="354" height="78.7"/>
	<text transform="matrix(1 0 0 1 8.1172 33.959)"><tspan x="0" y="0" class="st1 st2">WOULD YOU LIKE </tspan><tspan x="2.4" y="41" class="st1 st2">TO KNOW MORE?</tspan></text>
	<g>
		<linearGradient id="SVGID_1_" gradientUnits="userSpaceOnUse" x1="181.4753" y1="-4.6995" x2="181.4753" y2="170.4737">
			<stop  offset="0" style="stop-color:#666666"/>
			<stop  offset="1" style="stop-color:#1A1A1A"/>
		</linearGradient>
		<polygon class="st3" points="38,36 28.6,36 26.6,28.9 24.7,36 13.9,36 4.9,6 17.7,6 19.9,14.1 20.7,10.9 21.7,10.9 20.4,6 33.2,6 
			35.1,13.2 36.8,6 48.9,6 40.7,35 40.9,36 40.4,36 39.1,40.3 		"/>
		<linearGradient id="SVGID_2_" gradientUnits="userSpaceOnUse" x1="181.4753" y1="-4.6995" x2="181.4753" y2="170.4737">
			<stop  offset="0" style="stop-color:#666666"/>
			<stop  offset="1" style="stop-color:#1A1A1A"/>
		</linearGradient>
		<path class="st4" d="M51.9,36l-6.4-6.3V12.4L51.9,6h16.3l6.4,6.3v17.2L68.2,36H51.9z M62,26.7V15.3h-3.9v11.4h0.6H62z"/>
		<linearGradient id="SVGID_3_" gradientUnits="userSpaceOnUse" x1="181.4753" y1="-4.6995" x2="181.4753" y2="170.4737">
			<stop  offset="0" style="stop-color:#666666"/>
			<stop  offset="1" style="stop-color:#1A1A1A"/>
		</linearGradient>
		<polygon class="st5" points="80.8,36 74.4,29.6 74.4,6 87.1,6 87.1,26.8 90.8,26.8 90.8,6 103.5,6 103.5,29.6 97.1,36 		"/>
		<linearGradient id="SVGID_4_" gradientUnits="userSpaceOnUse" x1="181.4753" y1="-4.6995" x2="181.4753" y2="170.4737">
			<stop  offset="0" style="stop-color:#666666"/>
			<stop  offset="1" style="stop-color:#1A1A1A"/>
		</linearGradient>
		<polygon class="st6" points="103.8,36 103.8,6 116.5,6 116.5,26.8 118.1,26.8 118.1,23.5 129.9,23.5 129.9,36 		"/>
		<linearGradient id="SVGID_5_" gradientUnits="userSpaceOnUse" x1="181.4753" y1="-4.6995" x2="181.4753" y2="170.4737">
			<stop  offset="0" style="stop-color:#666666"/>
			<stop  offset="1" style="stop-color:#1A1A1A"/>
		</linearGradient>
		<path class="st7" d="M128.6,36V6h22.7l6.4,6.3v17.2l-6.4,6.3H128.6z M145,26.8V15.2h-3.8v11.6H145z"/>
		<linearGradient id="SVGID_6_" gradientUnits="userSpaceOnUse" x1="181.4753" y1="-4.6995" x2="181.4753" y2="170.4737">
			<stop  offset="0" style="stop-color:#666666"/>
			<stop  offset="1" style="stop-color:#1A1A1A"/>
		</linearGradient>
		<polygon class="st8" points="173.9,36 173.9,26.2 163.9,6 176.9,6 180.3,13 184,6 196.8,6 186.6,26.1 186.6,36 		"/>
		<linearGradient id="SVGID_7_" gradientUnits="userSpaceOnUse" x1="181.4753" y1="-4.6995" x2="181.4753" y2="170.4737">
			<stop  offset="0" style="stop-color:#666666"/>
			<stop  offset="1" style="stop-color:#1A1A1A"/>
		</linearGradient>
		<path class="st9" d="M199.1,36l-6.4-6.3V12.4l6.4-6.3h16.3l6.4,6.3v17.2l-6.4,6.3H199.1z M209.2,26.7V15.3h-3.9v11.4h0.6H209.2z"
			/>
		<linearGradient id="SVGID_8_" gradientUnits="userSpaceOnUse" x1="181.4753" y1="-4.6995" x2="181.4753" y2="170.4737">
			<stop  offset="0" style="stop-color:#666666"/>
			<stop  offset="1" style="stop-color:#1A1A1A"/>
		</linearGradient>
		<polygon class="st10" points="228,36 221.6,29.6 221.6,6 234.3,6 234.3,26.8 238.1,26.8 238.1,6 250.7,6 250.7,29.6 244.3,36 		
			"/>
		<linearGradient id="SVGID_9_" gradientUnits="userSpaceOnUse" x1="181.4753" y1="-4.6995" x2="181.4753" y2="170.4737">
			<stop  offset="0" style="stop-color:#666666"/>
			<stop  offset="1" style="stop-color:#1A1A1A"/>
		</linearGradient>
		<polygon class="st11" points="261.4,36 261.4,6 274,6 274,26.8 275.7,26.8 275.7,23.5 287.5,23.5 287.5,36 		"/>
		<linearGradient id="SVGID_10_" gradientUnits="userSpaceOnUse" x1="181.4753" y1="-4.6995" x2="181.4753" y2="170.4737">
			<stop  offset="0" style="stop-color:#666666"/>
			<stop  offset="1" style="stop-color:#1A1A1A"/>
		</linearGradient>
		<polygon class="st12" points="285.8,36 285.8,26.4 288.4,26.4 288.4,15.5 285.8,15.5 285.8,6 303.6,6 303.6,15.5 301,15.5 
			301,26.4 303.6,26.4 303.6,36 		"/>
		<linearGradient id="SVGID_11_" gradientUnits="userSpaceOnUse" x1="181.4753" y1="-4.6995" x2="181.4753" y2="170.4737">
			<stop  offset="0" style="stop-color:#666666"/>
			<stop  offset="1" style="stop-color:#1A1A1A"/>
		</linearGradient>
		<polygon class="st13" points="313.7,36 303.8,36 303.8,6 316.4,6 316.4,12.9 320.7,6 334.5,6 325.7,19.1 334.5,36 320.6,36 
			318,30.6 316.4,32.9 316.4,36 314.3,36 313.7,36.8 		"/>
		<linearGradient id="SVGID_12_" gradientUnits="userSpaceOnUse" x1="181.4753" y1="-4.6995" x2="181.4753" y2="170.4737">
			<stop  offset="0" style="stop-color:#666666"/>
			<stop  offset="1" style="stop-color:#1A1A1A"/>
		</linearGradient>
		<path class="st14" d="M330.5,36V6H358v11.5h-6.6v6.6h6.6V36H330.5z M345.4,26.8v-1.5h-2.2v1.5H345.4z M345.9,16.3v-1.3h-2.7v1.3
			H345.9z"/>
		<linearGradient id="SVGID_13_" gradientUnits="userSpaceOnUse" x1="181.4753" y1="-4.6995" x2="181.4753" y2="170.4737">
			<stop  offset="0" style="stop-color:#666666"/>
			<stop  offset="1" style="stop-color:#1A1A1A"/>
		</linearGradient>
		<polygon class="st15" points="16.2,77 16.2,56.7 9.5,56.7 9.5,47 36,47 36,56.7 29.2,56.7 29.2,77 		"/>
		<linearGradient id="SVGID_14_" gradientUnits="userSpaceOnUse" x1="181.4753" y1="-4.6995" x2="181.4753" y2="170.4737">
			<stop  offset="0" style="stop-color:#666666"/>
			<stop  offset="1" style="stop-color:#1A1A1A"/>
		</linearGradient>
		<path class="st16" d="M41.1,77l-6.4-6.3V53.4l6.4-6.3h16.3l6.4,6.3v17.2L57.5,77H41.1z M51.2,67.7V56.3h-3.9v11.4h0.6H51.2z"/>
		<linearGradient id="SVGID_15_" gradientUnits="userSpaceOnUse" x1="181.4753" y1="-4.6995" x2="181.4753" y2="170.4737">
			<stop  offset="0" style="stop-color:#666666"/>
			<stop  offset="1" style="stop-color:#1A1A1A"/>
		</linearGradient>
		<polygon class="st17" points="84.2,77 74.2,77 74.2,47 86.8,47 86.8,53.9 91.1,47 105,47 96.1,60.1 104.9,77 91,77 88.4,71.6 
			86.8,73.9 86.8,77 84.8,77 84.2,77.8 		"/>
		<linearGradient id="SVGID_16_" gradientUnits="userSpaceOnUse" x1="181.4753" y1="-4.6995" x2="181.4753" y2="170.4737">
			<stop  offset="0" style="stop-color:#666666"/>
			<stop  offset="1" style="stop-color:#1A1A1A"/>
		</linearGradient>
		<polygon class="st18" points="128.2,77 117.5,77 112.5,68.6 112.5,77 101,77 101,49.6 99.4,47 101,47 101,44.4 102.6,47 113.2,47 
			118.3,55.5 118.3,47 129.9,47 129.9,74.4 131.4,77 129.9,77 129.9,79.6 		"/>
		<linearGradient id="SVGID_17_" gradientUnits="userSpaceOnUse" x1="181.4753" y1="-4.6995" x2="181.4753" y2="170.4737">
			<stop  offset="0" style="stop-color:#666666"/>
			<stop  offset="1" style="stop-color:#1A1A1A"/>
		</linearGradient>
		<path class="st19" d="M136.3,77l-6.4-6.3V53.4l6.4-6.3h16.3l6.4,6.3v17.2l-6.4,6.3H136.3z M146.4,67.7V56.3h-3.9v11.4h0.6H146.4z"
			/>
		<linearGradient id="SVGID_18_" gradientUnits="userSpaceOnUse" x1="181.4753" y1="-4.6995" x2="181.4753" y2="170.4737">
			<stop  offset="0" style="stop-color:#666666"/>
			<stop  offset="1" style="stop-color:#1A1A1A"/>
		</linearGradient>
		<polygon class="st20" points="188.6,77 179.2,77 177.2,69.9 175.3,77 164.5,77 155.5,47 168.3,47 170.5,55.1 171.3,51.9 
			172.3,51.9 171,47 183.8,47 185.7,54.2 187.4,47 199.5,47 191.3,76 191.5,77 191,77 189.7,81.3 		"/>
		<linearGradient id="SVGID_19_" gradientUnits="userSpaceOnUse" x1="181.4753" y1="-4.6995" x2="181.4753" y2="170.4737">
			<stop  offset="0" style="stop-color:#666666"/>
			<stop  offset="1" style="stop-color:#1A1A1A"/>
		</linearGradient>
		<polygon class="st21" points="219.1,69.9 219.1,77 207,77 207,49.6 205.5,47 207,47 207,44.2 208.7,47 219.3,47 225.1,56.6 
			229.9,48.5 229.9,47 230.7,47 232.6,43.8 232.6,47 242.5,47 242.5,77 229.9,77 229.9,69.5 224.4,78.9 		"/>
		<linearGradient id="SVGID_20_" gradientUnits="userSpaceOnUse" x1="181.4753" y1="-4.6995" x2="181.4753" y2="170.4737">
			<stop  offset="0" style="stop-color:#666666"/>
			<stop  offset="1" style="stop-color:#1A1A1A"/>
		</linearGradient>
		<path class="st22" d="M248.9,77l-6.4-6.3V53.4l6.4-6.3h16.3l6.4,6.3v17.2l-6.4,6.3H248.9z M259.1,67.7V56.3h-3.9v11.4h0.6H259.1z"
			/>
		<linearGradient id="SVGID_21_" gradientUnits="userSpaceOnUse" x1="181.4753" y1="-4.6995" x2="181.4753" y2="170.4737">
			<stop  offset="0" style="stop-color:#666666"/>
			<stop  offset="1" style="stop-color:#1A1A1A"/>
		</linearGradient>
		<path class="st23" d="M289.1,77l-3.7-7.8h-1.1V77h-12.6V47h22.7l6.4,6.3v9.4l-3.5,3.5L303,77H289.1z M288.2,60.2v-3.9h-3.9v3.9
			H288.2z"/>
		<linearGradient id="SVGID_22_" gradientUnits="userSpaceOnUse" x1="181.4753" y1="-4.6995" x2="181.4753" y2="170.4737">
			<stop  offset="0" style="stop-color:#666666"/>
			<stop  offset="1" style="stop-color:#1A1A1A"/>
		</linearGradient>
		<path class="st24" d="M300.7,77V47h27.5v11.5h-6.6v6.6h6.6V77H300.7z M315.6,67.8v-1.5h-2.2v1.5H315.6z M316.1,57.3v-1.3h-2.7v1.3
			H316.1z"/>
		<linearGradient id="SVGID_23_" gradientUnits="userSpaceOnUse" x1="181.4753" y1="-4.6995" x2="181.4753" y2="170.4737">
			<stop  offset="0" style="stop-color:#666666"/>
			<stop  offset="1" style="stop-color:#1A1A1A"/>
		</linearGradient>
		<path class="st25" d="M334.4,77V63.1l4.3-4.3h-11.1v-5.4L334,47h15.7l6.3,6.3v6.1l-6.3,6.4h-2.5V77H334.4z M340.2,57.2l0.5-0.5
			h2.6v-0.5h-3.1V57.2z"/>
	</g>
	<g>
		<linearGradient id="SVGID_24_" gradientUnits="userSpaceOnUse" x1="181.647" y1="-3.0097" x2="181.647" y2="160.9127">
			<stop  offset="0" style="stop-color:#1A1A1A"/>
			<stop  offset="1" style="stop-color:#1A1A1A"/>
		</linearGradient>
		<polygon class="st26" points="38.8,35 29.3,35 26.6,25.1 24,35 14.6,35 6.3,7 17,7 20,18.2 21.6,11.2 22.8,11.1 21.7,7 32.5,7 
			35.1,17.3 37.6,7 47.6,7 39.2,36.4 		"/>
		<linearGradient id="SVGID_25_" gradientUnits="userSpaceOnUse" x1="181.647" y1="-3.0097" x2="181.647" y2="160.9127">
			<stop  offset="0" style="stop-color:#1A1A1A"/>
			<stop  offset="1" style="stop-color:#1A1A1A"/>
		</linearGradient>
		<path class="st27" d="M52.3,35l-5.8-5.8V12.8L52.3,7h15.5l5.8,5.8v16.4L67.8,35H52.3z M63,27.7V14.3h-5.9v13.4h2.6H63z"/>
		<linearGradient id="SVGID_26_" gradientUnits="userSpaceOnUse" x1="181.647" y1="-3.0097" x2="181.647" y2="160.9127">
			<stop  offset="0" style="stop-color:#1A1A1A"/>
			<stop  offset="1" style="stop-color:#1A1A1A"/>
		</linearGradient>
		<polygon class="st28" points="81.2,35 75.4,29.2 75.4,7 86.1,7 86.1,27.8 91.8,27.8 91.8,7 102.5,7 102.5,29.2 96.7,35 		"/>
		<linearGradient id="SVGID_27_" gradientUnits="userSpaceOnUse" x1="181.647" y1="-3.0097" x2="181.647" y2="160.9127">
			<stop  offset="0" style="stop-color:#1A1A1A"/>
			<stop  offset="1" style="stop-color:#1A1A1A"/>
		</linearGradient>
		<polygon class="st29" points="104.8,35 104.8,7 115.5,7 115.5,27.8 119.1,27.8 119.1,24.5 128.9,24.5 128.9,35 		"/>
		<linearGradient id="SVGID_28_" gradientUnits="userSpaceOnUse" x1="181.647" y1="-3.0097" x2="181.647" y2="160.9127">
			<stop  offset="0" style="stop-color:#1A1A1A"/>
			<stop  offset="1" style="stop-color:#1A1A1A"/>
		</linearGradient>
		<path class="st30" d="M129.6,35V7h21.3l5.8,5.8v16.4l-5.8,5.8H129.6z M146,27.8V14.2h-5.8v13.6H146z"/>
		<linearGradient id="SVGID_29_" gradientUnits="userSpaceOnUse" x1="181.647" y1="-3.0097" x2="181.647" y2="160.9127">
			<stop  offset="0" style="stop-color:#1A1A1A"/>
			<stop  offset="1" style="stop-color:#1A1A1A"/>
		</linearGradient>
		<polygon class="st31" points="174.9,35 174.9,26 165.5,7 176.3,7 180.3,15.2 184.6,7 195.1,7 185.5,26 185.6,26.1 185.6,35 		"/>
		<linearGradient id="SVGID_30_" gradientUnits="userSpaceOnUse" x1="181.647" y1="-3.0097" x2="181.647" y2="160.9127">
			<stop  offset="0" style="stop-color:#1A1A1A"/>
			<stop  offset="1" style="stop-color:#1A1A1A"/>
		</linearGradient>
		<path class="st32" d="M199.5,35l-5.8-5.8V12.8l5.8-5.8h15.5l5.8,5.8v16.4l-5.8,5.8H199.5z M210.2,27.7V14.3h-5.9v13.4h2.6H210.2z"
			/>
		<linearGradient id="SVGID_31_" gradientUnits="userSpaceOnUse" x1="181.647" y1="-3.0097" x2="181.647" y2="160.9127">
			<stop  offset="0" style="stop-color:#1A1A1A"/>
			<stop  offset="1" style="stop-color:#1A1A1A"/>
		</linearGradient>
		<polygon class="st33" points="228.4,35 222.6,29.2 222.6,7 233.3,7 233.3,27.8 239.1,27.8 239.1,7 249.7,7 249.7,29.2 243.9,35 		
			"/>
		<linearGradient id="SVGID_32_" gradientUnits="userSpaceOnUse" x1="181.647" y1="-3.0097" x2="181.647" y2="160.9127">
			<stop  offset="0" style="stop-color:#1A1A1A"/>
			<stop  offset="1" style="stop-color:#1A1A1A"/>
		</linearGradient>
		<polygon class="st34" points="262.4,35 262.4,7 273,7 273,27.8 276.7,27.8 276.7,24.5 286.5,24.5 286.5,35 		"/>
		<linearGradient id="SVGID_33_" gradientUnits="userSpaceOnUse" x1="181.647" y1="-3.0097" x2="181.647" y2="160.9127">
			<stop  offset="0" style="stop-color:#1A1A1A"/>
			<stop  offset="1" style="stop-color:#1A1A1A"/>
		</linearGradient>
		<polygon class="st35" points="286.8,35 286.8,27.4 289.4,27.4 289.4,14.5 286.8,14.5 286.8,7 302.6,7 302.6,14.5 300,14.5 
			300,27.4 302.6,27.4 302.6,35 		"/>
		<linearGradient id="SVGID_34_" gradientUnits="userSpaceOnUse" x1="181.647" y1="-3.0097" x2="181.647" y2="160.9127">
			<stop  offset="0" style="stop-color:#1A1A1A"/>
			<stop  offset="1" style="stop-color:#1A1A1A"/>
		</linearGradient>
		<polygon class="st36" points="321.2,35 318.1,28.6 315.4,32.6 315.4,35 304.8,35 304.8,7 315.4,7 315.4,16.3 321.2,7 332.7,7 
			324.5,19 332.8,35 		"/>
		<linearGradient id="SVGID_35_" gradientUnits="userSpaceOnUse" x1="181.647" y1="-3.0097" x2="181.647" y2="160.9127">
			<stop  offset="0" style="stop-color:#1A1A1A"/>
			<stop  offset="1" style="stop-color:#1A1A1A"/>
		</linearGradient>
		<polygon class="st37" points="331.5,35 331.5,7 357,7 357,16.5 346.9,16.5 346.9,14.1 342.2,14.1 342.2,17.3 350.4,17.3 
			350.4,24.3 342.2,24.3 342.2,27.8 346.4,27.8 346.4,25.2 357,25.2 357,35 		"/>
		<linearGradient id="SVGID_36_" gradientUnits="userSpaceOnUse" x1="181.647" y1="-3.0097" x2="181.647" y2="160.9127">
			<stop  offset="0" style="stop-color:#1A1A1A"/>
			<stop  offset="1" style="stop-color:#1A1A1A"/>
		</linearGradient>
		<polygon class="st38" points="17.2,76 17.2,55.7 10.5,55.7 10.5,48 35,48 35,55.7 28.2,55.7 28.2,76 		"/>
		<linearGradient id="SVGID_37_" gradientUnits="userSpaceOnUse" x1="181.647" y1="-3.0097" x2="181.647" y2="160.9127">
			<stop  offset="0" style="stop-color:#1A1A1A"/>
			<stop  offset="1" style="stop-color:#1A1A1A"/>
		</linearGradient>
		<path class="st39" d="M41.5,76l-5.8-5.8V53.8l5.8-5.8h15.5l5.8,5.8v16.4L57.1,76H41.5z M52.2,68.7V55.3h-5.9v13.4h2.6H52.2z"/>
		<linearGradient id="SVGID_38_" gradientUnits="userSpaceOnUse" x1="181.647" y1="-3.0097" x2="181.647" y2="160.9127">
			<stop  offset="0" style="stop-color:#1A1A1A"/>
			<stop  offset="1" style="stop-color:#1A1A1A"/>
		</linearGradient>
		<polygon class="st40" points="91.7,76 88.6,69.6 85.8,73.6 85.8,76 75.2,76 75.2,48 85.8,48 85.8,57.3 91.7,48 103.1,48 95,60 
			103.3,76 		"/>
		<linearGradient id="SVGID_39_" gradientUnits="userSpaceOnUse" x1="181.647" y1="-3.0097" x2="181.647" y2="160.9127">
			<stop  offset="0" style="stop-color:#1A1A1A"/>
			<stop  offset="1" style="stop-color:#1A1A1A"/>
		</linearGradient>
		<polygon class="st41" points="128.8,76 118.1,76 111.5,65 111.5,76 102,76 102,49.3 101.2,48 102,48 102,47.9 102,48 112.7,48 
			119.3,59 119.3,48 128.9,48 128.9,74.7 129.6,76 128.9,76 128.9,76.1 		"/>
		<linearGradient id="SVGID_40_" gradientUnits="userSpaceOnUse" x1="181.647" y1="-3.0097" x2="181.647" y2="160.9127">
			<stop  offset="0" style="stop-color:#1A1A1A"/>
			<stop  offset="1" style="stop-color:#1A1A1A"/>
		</linearGradient>
		<path class="st42" d="M136.7,76l-5.8-5.8V53.8l5.8-5.8h15.5l5.8,5.8v16.4l-5.8,5.8H136.7z M147.4,68.7V55.3h-5.9v13.4h2.6H147.4z"
			/>
		<linearGradient id="SVGID_41_" gradientUnits="userSpaceOnUse" x1="181.647" y1="-3.0097" x2="181.647" y2="160.9127">
			<stop  offset="0" style="stop-color:#1A1A1A"/>
			<stop  offset="1" style="stop-color:#1A1A1A"/>
		</linearGradient>
		<polygon class="st43" points="189.4,76 179.9,76 177.2,66.1 174.6,76 165.2,76 156.9,48 167.6,48 170.6,59.2 172.2,52.2 
			173.4,52.1 172.3,48 183.1,48 185.7,58.3 188.2,48 198.2,48 189.8,77.4 		"/>
		<linearGradient id="SVGID_42_" gradientUnits="userSpaceOnUse" x1="181.647" y1="-3.0097" x2="181.647" y2="160.9127">
			<stop  offset="0" style="stop-color:#1A1A1A"/>
			<stop  offset="1" style="stop-color:#1A1A1A"/>
		</linearGradient>
		<polygon class="st44" points="218.1,66.3 218.1,76 208,76 208,49.3 207.3,48 208,48 208,47.8 208.1,48 218.8,48 225.1,58.6 
			230.9,48.7 230.9,48 231.3,48 231.6,47.5 231.6,48 241.5,48 241.5,76 230.9,76 230.9,65.8 224.4,76.9 		"/>
		<linearGradient id="SVGID_43_" gradientUnits="userSpaceOnUse" x1="181.647" y1="-3.0097" x2="181.647" y2="160.9127">
			<stop  offset="0" style="stop-color:#1A1A1A"/>
			<stop  offset="1" style="stop-color:#1A1A1A"/>
		</linearGradient>
		<path class="st45" d="M249.3,76l-5.8-5.8V53.8l5.8-5.8h15.5l5.8,5.8v16.4l-5.8,5.8H249.3z M260.1,68.7V55.3h-5.9v13.4h2.6H260.1z"
			/>
		<linearGradient id="SVGID_44_" gradientUnits="userSpaceOnUse" x1="181.647" y1="-3.0097" x2="181.647" y2="160.9127">
			<stop  offset="0" style="stop-color:#1A1A1A"/>
			<stop  offset="1" style="stop-color:#1A1A1A"/>
		</linearGradient>
		<path class="st46" d="M289.8,76l-3.7-7.8h-2.7V76h-10.6V48H294l5.8,5.8v8.6l-3.8,3.8l5.3,9.8H289.8z M289.2,61.2v-5.9h-5.9v5.9
			H289.2z"/>
		<linearGradient id="SVGID_45_" gradientUnits="userSpaceOnUse" x1="181.647" y1="-3.0097" x2="181.647" y2="160.9127">
			<stop  offset="0" style="stop-color:#1A1A1A"/>
			<stop  offset="1" style="stop-color:#1A1A1A"/>
		</linearGradient>
		<polygon class="st47" points="301.7,76 301.7,48 327.2,48 327.2,57.5 317.1,57.5 317.1,55.1 312.3,55.1 312.3,58.3 320.6,58.3 
			320.6,65.3 312.3,65.3 312.3,68.8 316.6,68.8 316.6,66.2 327.2,66.2 327.2,76 		"/>
		<linearGradient id="SVGID_46_" gradientUnits="userSpaceOnUse" x1="181.647" y1="-3.0097" x2="181.647" y2="160.9127">
			<stop  offset="0" style="stop-color:#1A1A1A"/>
			<stop  offset="1" style="stop-color:#1A1A1A"/>
		</linearGradient>
		<path class="st48" d="M335.4,76v-8h10.7v8H335.4z M335.4,67.3v-3.8l5.8-5.8h3.1v-2.5h-5.1v2.6h-10.7v-4l5.8-5.8h14.8l5.8,5.8v5.3
			l-5.8,5.8h-3.1v2.4H335.4z"/>
	</g>
	<g>
		<linearGradient id="SVGID_47_" gradientUnits="userSpaceOnUse" x1="181.8184" y1="-1.5123" x2="181.8184" y2="154.2983">
			<stop  offset="0" style="stop-color:#4D4D4D"/>
			<stop  offset="0.299" style="stop-color:#C3C3C3"/>
			<stop  offset="0.3142" style="stop-color:#ADADAD"/>
			<stop  offset="0.3437" style="stop-color:#888888"/>
			<stop  offset="0.3747" style="stop-color:#696969"/>
			<stop  offset="0.407" style="stop-color:#515151"/>
			<stop  offset="0.4412" style="stop-color:#404040"/>
			<stop  offset="0.4786" style="stop-color:#363636"/>
			<stop  offset="0.5251" style="stop-color:#333333"/>
			<stop  offset="1" style="stop-color:#666666"/>
		</linearGradient>
		<path class="st49" d="M20,22.3l2.6-10.9L26,23.7L23.2,34h-7.8L7.6,8h8.6L20,22.3z M38.3,34h-8.2L23,8h8.7L38.3,34z M38.4,8h7.9
			l-7,24.6l-3.5-13.8L38.4,8z"/>
		<linearGradient id="SVGID_48_" gradientUnits="userSpaceOnUse" x1="181.8184" y1="-1.5123" x2="181.8184" y2="154.2983">
			<stop  offset="0" style="stop-color:#4D4D4D"/>
			<stop  offset="0.299" style="stop-color:#C3C3C3"/>
			<stop  offset="0.3142" style="stop-color:#ADADAD"/>
			<stop  offset="0.3437" style="stop-color:#888888"/>
			<stop  offset="0.3747" style="stop-color:#696969"/>
			<stop  offset="0.407" style="stop-color:#515151"/>
			<stop  offset="0.4412" style="stop-color:#404040"/>
			<stop  offset="0.4786" style="stop-color:#363636"/>
			<stop  offset="0.5251" style="stop-color:#333333"/>
			<stop  offset="1" style="stop-color:#666666"/>
		</linearGradient>
		<path class="st50" d="M56.1,28.7h3.2V34h-6.6l-5.3-5.2V13.2L52.7,8h6.6v5.3h-3.2V28.7z M64,13.3h-3.3V8h6.7l5.2,5.2v15.6L67.4,34
			h-6.7v-5.3H64V13.3z"/>
		<linearGradient id="SVGID_49_" gradientUnits="userSpaceOnUse" x1="181.8184" y1="-1.5123" x2="181.8184" y2="154.2983">
			<stop  offset="0" style="stop-color:#4D4D4D"/>
			<stop  offset="0.299" style="stop-color:#C3C3C3"/>
			<stop  offset="0.3142" style="stop-color:#ADADAD"/>
			<stop  offset="0.3437" style="stop-color:#888888"/>
			<stop  offset="0.3747" style="stop-color:#696969"/>
			<stop  offset="0.407" style="stop-color:#515151"/>
			<stop  offset="0.4412" style="stop-color:#404040"/>
			<stop  offset="0.4786" style="stop-color:#363636"/>
			<stop  offset="0.5251" style="stop-color:#333333"/>
			<stop  offset="1" style="stop-color:#666666"/>
		</linearGradient>
		<path class="st51" d="M85.1,28.8h3.2V34h-6.6l-5.2-5.2V8h8.7V28.8z M101.5,28.8L96.3,34h-6.7v-5.2h3.2V8h8.6V28.8z"/>
		<linearGradient id="SVGID_50_" gradientUnits="userSpaceOnUse" x1="181.8184" y1="-1.5123" x2="181.8184" y2="154.2983">
			<stop  offset="0" style="stop-color:#4D4D4D"/>
			<stop  offset="0.299" style="stop-color:#C3C3C3"/>
			<stop  offset="0.3142" style="stop-color:#ADADAD"/>
			<stop  offset="0.3437" style="stop-color:#888888"/>
			<stop  offset="0.3747" style="stop-color:#696969"/>
			<stop  offset="0.407" style="stop-color:#515151"/>
			<stop  offset="0.4412" style="stop-color:#404040"/>
			<stop  offset="0.4786" style="stop-color:#363636"/>
			<stop  offset="0.5251" style="stop-color:#333333"/>
			<stop  offset="1" style="stop-color:#666666"/>
		</linearGradient>
		<path class="st52" d="M105.8,34V8h8.6V34H105.8z M115.8,34v-5.2h4.3v-3.3h7.8V34H115.8z"/>
		<linearGradient id="SVGID_51_" gradientUnits="userSpaceOnUse" x1="181.8184" y1="-1.5123" x2="181.8184" y2="154.2983">
			<stop  offset="0" style="stop-color:#4D4D4D"/>
			<stop  offset="0.299" style="stop-color:#C3C3C3"/>
			<stop  offset="0.3142" style="stop-color:#ADADAD"/>
			<stop  offset="0.3437" style="stop-color:#888888"/>
			<stop  offset="0.3747" style="stop-color:#696969"/>
			<stop  offset="0.407" style="stop-color:#515151"/>
			<stop  offset="0.4412" style="stop-color:#404040"/>
			<stop  offset="0.4786" style="stop-color:#363636"/>
			<stop  offset="0.5251" style="stop-color:#333333"/>
			<stop  offset="1" style="stop-color:#666666"/>
		</linearGradient>
		<path class="st53" d="M130.6,8h8.6V34h-8.6V8z M140.6,34v-5.2h6.4V13.2h-6.4V8h9.9l5.2,5.2v15.6l-5.2,5.2H140.6z"/>
		<linearGradient id="SVGID_52_" gradientUnits="userSpaceOnUse" x1="181.8184" y1="-1.5123" x2="181.8184" y2="154.2983">
			<stop  offset="0" style="stop-color:#4D4D4D"/>
			<stop  offset="0.299" style="stop-color:#C3C3C3"/>
			<stop  offset="0.3142" style="stop-color:#ADADAD"/>
			<stop  offset="0.3437" style="stop-color:#888888"/>
			<stop  offset="0.3747" style="stop-color:#696969"/>
			<stop  offset="0.407" style="stop-color:#515151"/>
			<stop  offset="0.4412" style="stop-color:#404040"/>
			<stop  offset="0.4786" style="stop-color:#363636"/>
			<stop  offset="0.5251" style="stop-color:#333333"/>
			<stop  offset="1" style="stop-color:#666666"/>
		</linearGradient>
		<path class="st54" d="M175.9,25.7L167.2,8h8.5l9,18.3V34h-8.7V25.7z M185.1,24.5l-4.2-8.5l4.3-7.9h8.3L185.1,24.5z"/>
		<linearGradient id="SVGID_53_" gradientUnits="userSpaceOnUse" x1="181.8184" y1="-1.5123" x2="181.8184" y2="154.2983">
			<stop  offset="0" style="stop-color:#4D4D4D"/>
			<stop  offset="0.299" style="stop-color:#C3C3C3"/>
			<stop  offset="0.3142" style="stop-color:#ADADAD"/>
			<stop  offset="0.3437" style="stop-color:#888888"/>
			<stop  offset="0.3747" style="stop-color:#696969"/>
			<stop  offset="0.407" style="stop-color:#515151"/>
			<stop  offset="0.4412" style="stop-color:#404040"/>
			<stop  offset="0.4786" style="stop-color:#363636"/>
			<stop  offset="0.5251" style="stop-color:#333333"/>
			<stop  offset="1" style="stop-color:#666666"/>
		</linearGradient>
		<path class="st55" d="M203.3,28.7h3.2V34h-6.6l-5.3-5.2V13.2l5.3-5.2h6.6v5.3h-3.2V28.7z M211.2,13.3h-3.3V8h6.7l5.2,5.2v15.6
			l-5.2,5.2h-6.7v-5.3h3.3V13.3z"/>
		<linearGradient id="SVGID_54_" gradientUnits="userSpaceOnUse" x1="181.8184" y1="-1.5123" x2="181.8184" y2="154.2983">
			<stop  offset="0" style="stop-color:#4D4D4D"/>
			<stop  offset="0.299" style="stop-color:#C3C3C3"/>
			<stop  offset="0.3142" style="stop-color:#ADADAD"/>
			<stop  offset="0.3437" style="stop-color:#888888"/>
			<stop  offset="0.3747" style="stop-color:#696969"/>
			<stop  offset="0.407" style="stop-color:#515151"/>
			<stop  offset="0.4412" style="stop-color:#404040"/>
			<stop  offset="0.4786" style="stop-color:#363636"/>
			<stop  offset="0.5251" style="stop-color:#333333"/>
			<stop  offset="1" style="stop-color:#666666"/>
		</linearGradient>
		<path class="st56" d="M232.3,28.8h3.2V34h-6.6l-5.2-5.2V8h8.7V28.8z M248.7,28.8l-5.2,5.2h-6.7v-5.2h3.2V8h8.6V28.8z"/>
		<linearGradient id="SVGID_55_" gradientUnits="userSpaceOnUse" x1="181.8184" y1="-1.5123" x2="181.8184" y2="154.2983">
			<stop  offset="0" style="stop-color:#4D4D4D"/>
			<stop  offset="0.299" style="stop-color:#C3C3C3"/>
			<stop  offset="0.3142" style="stop-color:#ADADAD"/>
			<stop  offset="0.3437" style="stop-color:#888888"/>
			<stop  offset="0.3747" style="stop-color:#696969"/>
			<stop  offset="0.407" style="stop-color:#515151"/>
			<stop  offset="0.4412" style="stop-color:#404040"/>
			<stop  offset="0.4786" style="stop-color:#363636"/>
			<stop  offset="0.5251" style="stop-color:#333333"/>
			<stop  offset="1" style="stop-color:#666666"/>
		</linearGradient>
		<path class="st57" d="M263.4,34V8h8.6V34H263.4z M273.4,34v-5.2h4.3v-3.3h7.8V34H273.4z"/>
		<linearGradient id="SVGID_56_" gradientUnits="userSpaceOnUse" x1="181.8184" y1="-1.5123" x2="181.8184" y2="154.2983">
			<stop  offset="0" style="stop-color:#4D4D4D"/>
			<stop  offset="0.299" style="stop-color:#C3C3C3"/>
			<stop  offset="0.3142" style="stop-color:#ADADAD"/>
			<stop  offset="0.3437" style="stop-color:#888888"/>
			<stop  offset="0.3747" style="stop-color:#696969"/>
			<stop  offset="0.407" style="stop-color:#515151"/>
			<stop  offset="0.4412" style="stop-color:#404040"/>
			<stop  offset="0.4786" style="stop-color:#363636"/>
			<stop  offset="0.5251" style="stop-color:#333333"/>
			<stop  offset="1" style="stop-color:#666666"/>
		</linearGradient>
		<path class="st58" d="M287.8,28.4h2.6V13.5h-2.6V8h13.8v5.5H299v14.9h2.6V34h-13.8V28.4z"/>
		<linearGradient id="SVGID_57_" gradientUnits="userSpaceOnUse" x1="181.8184" y1="-1.5123" x2="181.8184" y2="154.2983">
			<stop  offset="0" style="stop-color:#4D4D4D"/>
			<stop  offset="0.299" style="stop-color:#C3C3C3"/>
			<stop  offset="0.3142" style="stop-color:#ADADAD"/>
			<stop  offset="0.3437" style="stop-color:#888888"/>
			<stop  offset="0.3747" style="stop-color:#696969"/>
			<stop  offset="0.407" style="stop-color:#515151"/>
			<stop  offset="0.4412" style="stop-color:#404040"/>
			<stop  offset="0.4786" style="stop-color:#363636"/>
			<stop  offset="0.5251" style="stop-color:#333333"/>
			<stop  offset="1" style="stop-color:#666666"/>
		</linearGradient>
		<path class="st59" d="M305.8,34V8h8.6V34H305.8z M315.7,30.3V17.7l6.1-9.6h9L315.7,30.3z M331.2,34h-9.3l-2.9-6l5.1-7.7L331.2,34z
			"/>
		<linearGradient id="SVGID_58_" gradientUnits="userSpaceOnUse" x1="181.8184" y1="-1.5123" x2="181.8184" y2="154.2983">
			<stop  offset="0" style="stop-color:#4D4D4D"/>
			<stop  offset="0.299" style="stop-color:#C3C3C3"/>
			<stop  offset="0.3142" style="stop-color:#ADADAD"/>
			<stop  offset="0.3437" style="stop-color:#888888"/>
			<stop  offset="0.3747" style="stop-color:#696969"/>
			<stop  offset="0.407" style="stop-color:#515151"/>
			<stop  offset="0.4412" style="stop-color:#404040"/>
			<stop  offset="0.4786" style="stop-color:#363636"/>
			<stop  offset="0.5251" style="stop-color:#333333"/>
			<stop  offset="1" style="stop-color:#666666"/>
		</linearGradient>
		<path class="st60" d="M341.2,23.3V34h-8.6V8h8.6v10.3h8.3v5H341.2z M342.5,13.1V8H356v7.5h-8.1v-2.5H342.5z M342.5,34v-5.2h4.9
			v-2.6h8.6V34H342.5z"/>
		<linearGradient id="SVGID_59_" gradientUnits="userSpaceOnUse" x1="181.8184" y1="-1.5123" x2="181.8184" y2="154.2983">
			<stop  offset="0" style="stop-color:#4D4D4D"/>
			<stop  offset="0.299" style="stop-color:#C3C3C3"/>
			<stop  offset="0.3142" style="stop-color:#ADADAD"/>
			<stop  offset="0.3437" style="stop-color:#888888"/>
			<stop  offset="0.3747" style="stop-color:#696969"/>
			<stop  offset="0.407" style="stop-color:#515151"/>
			<stop  offset="0.4412" style="stop-color:#404040"/>
			<stop  offset="0.4786" style="stop-color:#363636"/>
			<stop  offset="0.5251" style="stop-color:#333333"/>
			<stop  offset="1" style="stop-color:#666666"/>
		</linearGradient>
		<path class="st61" d="M11.5,49H34v5.6H11.5V49z M18.2,56h9V75h-9V56z"/>
		<linearGradient id="SVGID_60_" gradientUnits="userSpaceOnUse" x1="181.8184" y1="-1.5123" x2="181.8184" y2="154.2983">
			<stop  offset="0" style="stop-color:#4D4D4D"/>
			<stop  offset="0.299" style="stop-color:#C3C3C3"/>
			<stop  offset="0.3142" style="stop-color:#ADADAD"/>
			<stop  offset="0.3437" style="stop-color:#888888"/>
			<stop  offset="0.3747" style="stop-color:#696969"/>
			<stop  offset="0.407" style="stop-color:#515151"/>
			<stop  offset="0.4412" style="stop-color:#404040"/>
			<stop  offset="0.4786" style="stop-color:#363636"/>
			<stop  offset="0.5251" style="stop-color:#333333"/>
			<stop  offset="1" style="stop-color:#666666"/>
		</linearGradient>
		<path class="st62" d="M45.3,69.7h3.2V75h-6.6l-5.3-5.2V54.2l5.3-5.2h6.6v5.3h-3.2V69.7z M53.2,54.3h-3.3V49h6.7l5.2,5.2v15.6
			L56.6,75h-6.7v-5.3h3.3V54.3z"/>
		<linearGradient id="SVGID_61_" gradientUnits="userSpaceOnUse" x1="181.8184" y1="-1.5123" x2="181.8184" y2="154.2983">
			<stop  offset="0" style="stop-color:#4D4D4D"/>
			<stop  offset="0.299" style="stop-color:#C3C3C3"/>
			<stop  offset="0.3142" style="stop-color:#ADADAD"/>
			<stop  offset="0.3437" style="stop-color:#888888"/>
			<stop  offset="0.3747" style="stop-color:#696969"/>
			<stop  offset="0.407" style="stop-color:#515151"/>
			<stop  offset="0.4412" style="stop-color:#404040"/>
			<stop  offset="0.4786" style="stop-color:#363636"/>
			<stop  offset="0.5251" style="stop-color:#333333"/>
			<stop  offset="1" style="stop-color:#666666"/>
		</linearGradient>
		<path class="st63" d="M76.2,75V49h8.6V75H76.2z M86.2,71.3V58.7l6.1-9.6h9L86.2,71.3z M101.6,75h-9.3l-2.9-6l5.1-7.7L101.6,75z"/>
		<linearGradient id="SVGID_62_" gradientUnits="userSpaceOnUse" x1="181.8184" y1="-1.5123" x2="181.8184" y2="154.2983">
			<stop  offset="0" style="stop-color:#4D4D4D"/>
			<stop  offset="0.299" style="stop-color:#C3C3C3"/>
			<stop  offset="0.3142" style="stop-color:#ADADAD"/>
			<stop  offset="0.3437" style="stop-color:#888888"/>
			<stop  offset="0.3747" style="stop-color:#696969"/>
			<stop  offset="0.407" style="stop-color:#515151"/>
			<stop  offset="0.4412" style="stop-color:#404040"/>
			<stop  offset="0.4786" style="stop-color:#363636"/>
			<stop  offset="0.5251" style="stop-color:#333333"/>
			<stop  offset="1" style="stop-color:#666666"/>
		</linearGradient>
		<path class="st64" d="M127.9,75h-9.2L103,49h9.1L127.9,75z M103,75V51.5l7.5,12.3V75H103z M127.9,49v23.5l-7.5-12.4V49H127.9z"/>
		<linearGradient id="SVGID_63_" gradientUnits="userSpaceOnUse" x1="181.8184" y1="-1.5123" x2="181.8184" y2="154.2983">
			<stop  offset="0" style="stop-color:#4D4D4D"/>
			<stop  offset="0.299" style="stop-color:#C3C3C3"/>
			<stop  offset="0.3142" style="stop-color:#ADADAD"/>
			<stop  offset="0.3437" style="stop-color:#888888"/>
			<stop  offset="0.3747" style="stop-color:#696969"/>
			<stop  offset="0.407" style="stop-color:#515151"/>
			<stop  offset="0.4412" style="stop-color:#404040"/>
			<stop  offset="0.4786" style="stop-color:#363636"/>
			<stop  offset="0.5251" style="stop-color:#333333"/>
			<stop  offset="1" style="stop-color:#666666"/>
		</linearGradient>
		<path class="st65" d="M140.5,69.7h3.2V75h-6.6l-5.3-5.2V54.2l5.3-5.2h6.6v5.3h-3.2V69.7z M148.4,54.3h-3.3V49h6.7l5.2,5.2v15.6
			l-5.2,5.2h-6.7v-5.3h3.3V54.3z"/>
		<linearGradient id="SVGID_64_" gradientUnits="userSpaceOnUse" x1="181.8184" y1="-1.5123" x2="181.8184" y2="154.2983">
			<stop  offset="0" style="stop-color:#4D4D4D"/>
			<stop  offset="0.299" style="stop-color:#C3C3C3"/>
			<stop  offset="0.3142" style="stop-color:#ADADAD"/>
			<stop  offset="0.3437" style="stop-color:#888888"/>
			<stop  offset="0.3747" style="stop-color:#696969"/>
			<stop  offset="0.407" style="stop-color:#515151"/>
			<stop  offset="0.4412" style="stop-color:#404040"/>
			<stop  offset="0.4786" style="stop-color:#363636"/>
			<stop  offset="0.5251" style="stop-color:#333333"/>
			<stop  offset="1" style="stop-color:#666666"/>
		</linearGradient>
		<path class="st66" d="M170.6,63.3l2.6-10.9l3.4,12.3L173.8,75H166L158.2,49h8.6L170.6,63.3z M188.9,75h-8.2L173.6,49h8.7L188.9,75
			z M189,49h7.9l-7,24.6l-3.5-13.8L189,49z"/>
		<linearGradient id="SVGID_65_" gradientUnits="userSpaceOnUse" x1="181.8184" y1="-1.5123" x2="181.8184" y2="154.2983">
			<stop  offset="0" style="stop-color:#4D4D4D"/>
			<stop  offset="0.299" style="stop-color:#C3C3C3"/>
			<stop  offset="0.3142" style="stop-color:#ADADAD"/>
			<stop  offset="0.3437" style="stop-color:#888888"/>
			<stop  offset="0.3747" style="stop-color:#696969"/>
			<stop  offset="0.407" style="stop-color:#515151"/>
			<stop  offset="0.4412" style="stop-color:#404040"/>
			<stop  offset="0.4786" style="stop-color:#363636"/>
			<stop  offset="0.5251" style="stop-color:#333333"/>
			<stop  offset="1" style="stop-color:#666666"/>
		</linearGradient>
		<path class="st67" d="M209,75V51.4l8.1,13.5v10H209z M209,49h9.2l7,11.5l5.5-9.4v13L224.4,75L209,49z M231.9,75V49h8.6V75H231.9z"
			/>
		<linearGradient id="SVGID_66_" gradientUnits="userSpaceOnUse" x1="181.8184" y1="-1.5123" x2="181.8184" y2="154.2983">
			<stop  offset="0" style="stop-color:#4D4D4D"/>
			<stop  offset="0.299" style="stop-color:#C3C3C3"/>
			<stop  offset="0.3142" style="stop-color:#ADADAD"/>
			<stop  offset="0.3437" style="stop-color:#888888"/>
			<stop  offset="0.3747" style="stop-color:#696969"/>
			<stop  offset="0.407" style="stop-color:#515151"/>
			<stop  offset="0.4412" style="stop-color:#404040"/>
			<stop  offset="0.4786" style="stop-color:#363636"/>
			<stop  offset="0.5251" style="stop-color:#333333"/>
			<stop  offset="1" style="stop-color:#666666"/>
		</linearGradient>
		<path class="st68" d="M253.1,69.7h3.2V75h-6.6l-5.3-5.2V54.2l5.3-5.2h6.6v5.3h-3.2V69.7z M261.1,54.3h-3.3V49h6.7l5.2,5.2v15.6
			l-5.2,5.2h-6.7v-5.3h3.3V54.3z"/>
		<linearGradient id="SVGID_67_" gradientUnits="userSpaceOnUse" x1="181.8184" y1="-1.5123" x2="181.8184" y2="154.2983">
			<stop  offset="0" style="stop-color:#4D4D4D"/>
			<stop  offset="0.299" style="stop-color:#C3C3C3"/>
			<stop  offset="0.3142" style="stop-color:#ADADAD"/>
			<stop  offset="0.3437" style="stop-color:#888888"/>
			<stop  offset="0.3747" style="stop-color:#696969"/>
			<stop  offset="0.407" style="stop-color:#515151"/>
			<stop  offset="0.4412" style="stop-color:#404040"/>
			<stop  offset="0.4786" style="stop-color:#363636"/>
			<stop  offset="0.5251" style="stop-color:#333333"/>
			<stop  offset="1" style="stop-color:#666666"/>
		</linearGradient>
		<path class="st69" d="M273.7,75V49h8.6V75H273.7z M283.7,54.2V49h9.9l5.2,5.2V62l-4,4l-0.3-0.5l-8.1,1.1l0.3,0.7h-3v-5h6.5v-7.9
			H283.7z M299.6,75h-9.2l-3.7-7.8h6.9l1.2-1.2L299.6,75z"/>
		<linearGradient id="SVGID_68_" gradientUnits="userSpaceOnUse" x1="181.8184" y1="-1.5123" x2="181.8184" y2="154.2983">
			<stop  offset="0" style="stop-color:#4D4D4D"/>
			<stop  offset="0.299" style="stop-color:#C3C3C3"/>
			<stop  offset="0.3142" style="stop-color:#ADADAD"/>
			<stop  offset="0.3437" style="stop-color:#888888"/>
			<stop  offset="0.3747" style="stop-color:#696969"/>
			<stop  offset="0.407" style="stop-color:#515151"/>
			<stop  offset="0.4412" style="stop-color:#404040"/>
			<stop  offset="0.4786" style="stop-color:#363636"/>
			<stop  offset="0.5251" style="stop-color:#333333"/>
			<stop  offset="1" style="stop-color:#666666"/>
		</linearGradient>
		<path class="st70" d="M311.3,64.3V75h-8.6V49h8.6v10.3h8.3v5H311.3z M312.7,54.1v-5h13.5v7.5h-8.1v-2.5H312.7z M312.7,75v-5.2h4.9
			v-2.6h8.6V75H312.7z"/>
		<linearGradient id="SVGID_69_" gradientUnits="userSpaceOnUse" x1="181.8184" y1="-1.5123" x2="181.8184" y2="154.2983">
			<stop  offset="0" style="stop-color:#4D4D4D"/>
			<stop  offset="0.299" style="stop-color:#C3C3C3"/>
			<stop  offset="0.3142" style="stop-color:#ADADAD"/>
			<stop  offset="0.3437" style="stop-color:#888888"/>
			<stop  offset="0.3747" style="stop-color:#696969"/>
			<stop  offset="0.407" style="stop-color:#515151"/>
			<stop  offset="0.4412" style="stop-color:#404040"/>
			<stop  offset="0.4786" style="stop-color:#363636"/>
			<stop  offset="0.5251" style="stop-color:#333333"/>
			<stop  offset="1" style="stop-color:#666666"/>
		</linearGradient>
		<path class="st71" d="M348.8,49l5.2,5.2v4.5l-5.2,5.2h-3.7v2.4h-8.7v-2.4l5.2-5.2h3.7v-4.5h-7.1v2.6h-8.7v-2.6l5.2-5.2H348.8z
			 M336.4,68.9h8.7v6h-8.7V68.9z"/>
	</g>
</g>
</svg>
